<?xml version="1.0" standalone="no"?><!DOCTYPE svg PUBLIC "-//W3C//DTD SVG 1.1//EN" "http://www.w3.org/Graphics/SVG/1.1/DTD/svg11.dtd"><svg width="100%" height="100%" viewBox="0 0 87 71" version="1.1" xmlns="http://www.w3.org/2000/svg" xmlns:xlink="http://www.w3.org/1999/xlink" xml:space="preserve" style="fill-rule:evenodd;clip-rule:evenodd;stroke-linejoin:round;stroke-miterlimit:1.41421;"><path d="M81.563,65.563l0,-48.938l-38.063,0l0,-16.625l-38.062,0l0,65.563l-5.438,0l0,5.437l87,0l0,-5.437l-5.437,0ZM10.875,5.75l10.875,0l0,10.875l-10.875,0l0,-10.875ZM10.875,22.063l10.875,0l0,10.875l-10.875,0l0,-10.875ZM10.875,38.375l10.875,0l0,10.875l-10.875,0l0,-10.875ZM32.625,65.563l-16.313,0l0,-10.875l16.313,0l0,10.875ZM38.063,49.25l-10.875,0l0,-10.875l10.875,0l0,10.875ZM38.063,32.938l-10.875,0l0,-10.875l10.875,0l0,10.875ZM38.063,16.625l-10.875,0l0,-10.875l10.875,0l0,10.875ZM48.937,22.063l10.876,0l0,10.875l-10.876,0l0,-10.875ZM48.937,38.375l10.876,0l0,10.875l-10.876,0l0,-10.875ZM70.688,65.563l-16.313,0l0,-10.875l16.313,0l0,10.875ZM76.125,49.25l-10.875,0l0,-10.875l10.875,0l0,10.875ZM76.125,32.938l-10.875,0l0,-10.875l10.875,0l0,10.875Z" style="fill:#708dba;fill-rule:nonzero;"/></svg>