<?xml version="1.0" standalone="no"?><!DOCTYPE svg PUBLIC "-//W3C//DTD SVG 1.1//EN" "http://www.w3.org/Graphics/SVG/1.1/DTD/svg11.dtd"><svg width="100%" height="100%" viewBox="0 0 78 80" version="1.1" xmlns="http://www.w3.org/2000/svg" xmlns:xlink="http://www.w3.org/1999/xlink" xml:space="preserve" style="fill-rule:evenodd;clip-rule:evenodd;stroke-linejoin:round;stroke-miterlimit:1.41421;"><path d="M41.303,59.968l17.712,-7.991l0,-51.946l-17.712,7.992l0,51.945ZM21.23,51.977l17.578,7.193l0,-51.947l-17.578,-7.192l0,51.946ZM0.999,8.023l0,51.945l17.736,-7.192l0,-51.946l-17.736,7.193Z" style="fill:#708dba;fill-rule:nonzero;"/><path d="M21.23,51.977l17.578,7.193l0,-51.947l-17.578,-7.192l0,51.946Z" style="fill:#50688d;fill-rule:nonzero;"/><path d="M57.5,39c11.322,0 20.5,9.178 20.5,20.5c0,11.322 -9.178,20.5 -20.5,20.5c-11.322,0 -20.5,-9.178 -20.5,-20.5c0,-11.322 9.178,-20.5 20.5,-20.5Z" style="fill:#fff;fill-rule:nonzero;"/><path d="M65.313,56.692l0,7.693l-15.625,0l0,-7.693l-4.688,0l0,12.308l25,0l0,-4.615l0,-7.693l-4.687,0Z" style="fill:#50688d;fill-rule:nonzero;"/><path d="M57.5,62.846l-4.687,-4.615l1.562,0l0,-6.154l6.25,0l0,6.154l1.563,0l-4.688,4.615ZM54.375,49l6.25,0l0,1.539l-6.25,0l0,-1.539Z" style="fill:#50688d;fill-rule:nonzero;"/></svg>