<?xml version="1.0" standalone="no"?><!DOCTYPE svg PUBLIC "-//W3C//DTD SVG 1.1//EN" "http://www.w3.org/Graphics/SVG/1.1/DTD/svg11.dtd"><svg width="100%" height="100%" viewBox="0 0 84 64" version="1.1" xmlns="http://www.w3.org/2000/svg" xmlns:xlink="http://www.w3.org/1999/xlink" xml:space="preserve" style="fill-rule:evenodd;clip-rule:evenodd;stroke-linejoin:round;stroke-miterlimit:1.41421;"><path d="M78.75,64l-73.5,0c-2.9,0 -5.25,-2.351 -5.25,-5.25l0,-52.5c0,-2.9 2.35,-5.251 5.25,-5.251l73.5,0c2.899,0 5.25,2.351 5.25,5.251l0,52.5c0,2.899 -2.351,5.25 -5.25,5.25ZM57.75,29.875l-31.5,0l0,2.625l31.5,0l0,-2.625ZM57.75,40.375l-31.5,0l0,2.625l31.5,0l0,-2.625ZM78.75,6.25l-7.875,0l0,7.875l7.875,0l0,-7.875Z" style="fill:#708dba;fill-rule:nonzero;"/><rect x="66" y="6" width="13" height="11" style="fill:#fff;"/></svg>