<?xml version="1.0" standalone="no"?>
<!DOCTYPE svg PUBLIC "-//W3C//DTD SVG 1.1//EN" "http://www.w3.org/Graphics/SVG/1.1/DTD/svg11.dtd">
<svg width="100%" height="100%" viewBox="0 0 91 91" version="1.1" xmlns="http://www.w3.org/2000/svg" xmlns:xlink="http://www.w3.org/1999/xlink" xml:space="preserve" style="fill-rule:evenodd;clip-rule:evenodd;stroke-linejoin:round;stroke-miterlimit:1.41421;">
    <path d="M45.537,0.882C70.118,0.882 90.118,20.917 90.118,45.463C90.118,70.01 70.115,90.013 45.533,90.013C20.952,90.013 0.964,70.001 0.964,45.454C0.964,20.907 20.956,0.882 45.537,0.882Z" style="fill:rgb(198,211,228);fill-rule:nonzero;"/>
    <path d="M45.533,90.013C20.952,90.013 0.964,70.001 0.964,45.454C0.964,20.907 20.956,0.882 45.537,0.882C70.118,0.882 90.118,20.917 90.118,45.463C90.118,70.01 70.115,90.013 45.533,90.013ZM45.537,7.103C24.378,7.103 7.176,24.307 7.176,45.463C7.176,66.62 24.378,83.823 45.537,83.823C66.696,83.823 83.897,66.62 83.897,45.463C83.897,24.307 66.696,7.103 45.537,7.103Z" style="fill:white;fill-rule:nonzero;"/>
    <path d="M42.516,24.593L42.516,41.048L26.741,41.048L26.741,48.066L42.516,48.066L42.516,64.747L49.913,64.747L49.913,48.066L65.688,48.066L65.688,41.048L49.913,41.048L49.913,24.593L42.516,24.593Z" style="fill:white;fill-rule:nonzero;"/>
</svg>
