<?xml version="1.0" standalone="no"?><!DOCTYPE svg PUBLIC "-//W3C//DTD SVG 1.1//EN" "http://www.w3.org/Graphics/SVG/1.1/DTD/svg11.dtd"><svg width="100%" height="100%" viewBox="0 0 81 92" version="1.1" xmlns="http://www.w3.org/2000/svg" xmlns:xlink="http://www.w3.org/1999/xlink" xml:space="preserve" style="fill-rule:evenodd;clip-rule:evenodd;stroke-linejoin:round;stroke-miterlimit:1.41421;"><path d="M57.649,3.651c10.881,0 19.702,8.826 19.702,19.714c0,10.888 -8.821,19.714 -19.702,19.714c-10.882,0 -19.703,-8.826 -19.703,-19.714c0,-10.888 8.821,-19.714 19.703,-19.714Z" style="fill:#fff;fill-rule:nonzero;"/><path d="M58.646,0c-6.62,0 -12.567,2.825 -16.659,7.313c-1.658,1.818 -2.824,3.494 -3.795,5.781c-0.166,0.412 0.212,0.525 0.408,0.58c0.944,0.27 1.867,0.591 2.764,0.961c0.214,0.088 0.617,0.198 0.834,-0.16c0.78,-1.776 1.647,-2.972 2.943,-4.393c3.318,-3.637 8.139,-5.927 13.505,-5.927c10.009,0 18.121,7.963 18.121,17.787c0,0.585 -0.029,1.166 -0.086,1.737c-0.889,9.009 -8.624,16.051 -18.035,16.051c-1.287,0 -1.33,0.795 -1.33,0.795c0,0 -0.068,2.036 0.009,2.815c0.055,0.556 0.519,0.545 0.519,0.545c0.437,0.025 0.359,0 0.802,0c11.745,0 21.374,-8.89 22.283,-20.191c0.047,-0.578 0.071,-1.162 0.071,-1.752c-0.001,-12.118 -10.009,-21.942 -22.354,-21.942Z" style="fill:#50688d;fill-rule:nonzero;"/><path d="M60.306,21.177c-0.287,0 -0.522,-0.231 -0.522,-0.513l0,-8.689c0,-0.282 -0.235,-0.512 -0.521,-0.512l-1.965,0c-0.287,0 -0.522,0.23 -0.522,0.512l0,11.642c0,0.282 0.235,0.513 0.522,0.513l11.622,0c0.287,0 0.522,-0.231 0.522,-0.513l0,-1.928c0,-0.282 -0.235,-0.512 -0.522,-0.512l-8.614,0Z" style="fill:#50688d;fill-rule:nonzero;"/><path d="M0,91.999c0.457,-1.701 0.453,-20.239 5.772,-22.323l16.519,-6.483l3.87,-3.207c1.02,-0.847 2.527,-0.787 3.475,0.139l5.394,5.264l5.377,-5.263c0.949,-0.927 2.458,-0.989 3.479,-0.14l3.868,3.207l16.52,6.482c5.321,2.083 5.323,20.626 5.78,22.324l-70.054,0ZM35.032,58.728c-10.155,0.153 -16.384,-8.597 -16.541,-23.019c-0.108,-10.53 5.823,-15.995 16.541,-15.995c10.946,0 16.532,5.465 16.532,15.995c0,23.678 -16.532,23.019 -16.532,23.019Z" style="fill:#708dba;fill-rule:nonzero;"/><rect x="43.784" y="72.285" width="13.135" height="6.572" style="fill:#fff;"/></svg>