<?xml version="1.0" standalone="no"?><!DOCTYPE svg PUBLIC "-//W3C//DTD SVG 1.1//EN" "http://www.w3.org/Graphics/SVG/1.1/DTD/svg11.dtd"><svg width="100%" height="100%" viewBox="0 0 32 27" version="1.1" xmlns="http://www.w3.org/2000/svg" xmlns:xlink="http://www.w3.org/1999/xlink" xml:space="preserve" style="fill-rule:evenodd;clip-rule:evenodd;stroke-linejoin:round;stroke-miterlimit:1.41421;"><path d="M30,24.932l0,-18.61l-14,0l0,-6.322l-14,0l0,24.932l-2,0l0,2.068l32,0l0,-2.068l-2,0ZM4,2.186l4,0l0,4.136l-4,0l0,-4.136ZM4,8.39l4,0l0,4.136l-4,0l0,-4.136ZM4,14.594l4,0l0,4.135l-4,0l0,-4.135ZM12,24.932l-6,0l0,-4.135l6,0l0,4.135ZM14,18.729l-4,0l0,-4.135l4,0l0,4.135ZM14,12.526l-4,0l0,-4.136l4,0l0,4.136ZM14,6.322l-4,0l0,-4.136l4,0l0,4.136ZM18,8.39l4,0l0,4.136l-4,0l0,-4.136ZM18,14.594l4,0l0,4.135l-4,0l0,-4.135ZM26,24.932l-6,0l0,-4.135l6,0l0,4.135ZM28,18.729l-4,0l0,-4.135l4,0l0,4.135ZM28,12.526l-4,0l0,-4.136l4,0l0,4.136Z" style="fill:#fff;fill-rule:nonzero;"/></svg>