<?xml version="1.0" standalone="no"?><!DOCTYPE svg PUBLIC "-//W3C//DTD SVG 1.1//EN" "http://www.w3.org/Graphics/SVG/1.1/DTD/svg11.dtd"><svg width="100%" height="100%" viewBox="0 0 47 55" version="1.1" xmlns="http://www.w3.org/2000/svg" xmlns:xlink="http://www.w3.org/1999/xlink" xml:space="preserve" style="fill-rule:evenodd;clip-rule:evenodd;stroke-linecap:round;stroke-linejoin:round;stroke-miterlimit:1.41421;"><path d="M22.021,26.421l0,-9.177l20.199,17.711l-20.199,19.156l0,-9.177c-0.092,0.006 -0.185,0.009 -0.279,0.009l-17.109,0c-2.557,0 -4.633,-2.076 -4.633,-4.633l0,-9.265c0,-2.557 2.076,-4.633 4.633,-4.633l17.109,0c0.094,0 0.187,0.003 0.279,0.009Z" style="fill:#fff;"/><path d="M11.274,24.756l-9.153,-3.868l20.198,-19.156l0,9.177c0.092,-0.006 0.185,-0.008 0.279,-0.008l17.11,0c2.557,0 4.633,2.075 4.633,4.632l0,9.265c0,2.557 -2.076,4.633 -4.633,4.633" style="fill:none;stroke-width:2px;stroke:#fff;"/></svg>