<?xml version="1.0" standalone="no"?>
<!DOCTYPE svg PUBLIC "-//W3C//DTD SVG 1.1//EN" "http://www.w3.org/Graphics/SVG/1.1/DTD/svg11.dtd">
<svg width="100%" height="100%" viewBox="0 0 32 27" version="1.1" xmlns="http://www.w3.org/2000/svg" xmlns:xlink="http://www.w3.org/1999/xlink" xml:space="preserve" style="fill-rule:evenodd;clip-rule:evenodd;stroke-linejoin:round;stroke-miterlimit:1.41421;">
    <g transform="matrix(0.26408,0,0,0.238307,-626.064,-3.92986)">
        <path d="M2458.88,55.817C2458.88,55.817 2458.88,69.675 2458.88,77.312C2458.88,78.159 2459.33,78.925 2460.04,79.262C2460.74,79.598 2461.55,79.441 2462.11,78.861C2470.27,70.379 2491.05,48.766 2491.05,48.766C2491.05,48.766 2469.72,27.367 2461.8,19.418C2461.29,18.904 2460.55,18.773 2459.92,19.083C2459.29,19.394 2458.88,20.087 2458.88,20.852C2458.88,27.758 2458.88,40.437 2458.88,40.437C2410.5,40.437 2405,84.491 2405,84.491C2417.42,62.541 2437.76,55.817 2458.88,55.817Z" style="fill:white;fill-rule:nonzero;"/>
    </g>
    <g transform="matrix(1,0,0,1,-225.464,-894.038)">
        <path d="M236.966,894.357C237.438,894.357 237.821,894.74 237.821,895.212C237.821,895.745 237.821,896.43 237.821,896.967C237.821,897.451 237.428,897.844 236.944,897.844C234.822,897.844 229.583,897.844 229.583,897.844L229.583,917.464L246.059,917.464C246.059,917.464 246.059,914.357 246.059,912.817C246.059,912.333 246.425,911.928 246.906,911.88C247.655,911.807 248.423,911.754 249.211,911.716C249.463,911.703 249.709,911.795 249.892,911.969C250.074,912.143 250.178,912.385 250.178,912.637C250.178,914.049 250.178,916.519 250.178,916.519C250.178,918.956 248.324,920.951 246.059,920.951L229.583,920.951C227.317,920.951 225.464,918.956 225.464,916.519L225.464,898.745C225.464,896.308 227.276,894.357 229.542,894.357C229.542,894.357 234.851,894.357 236.966,894.357Z" style="fill:white;"/>
    </g>
</svg>
