<?xml version="1.0" standalone="no"?><!DOCTYPE svg PUBLIC "-//W3C//DTD SVG 1.1//EN" "http://www.w3.org/Graphics/SVG/1.1/DTD/svg11.dtd"><svg width="100%" height="100%" viewBox="0 0 100 88" version="1.1" xmlns="http://www.w3.org/2000/svg" xmlns:xlink="http://www.w3.org/1999/xlink" xml:space="preserve" style="fill-rule:evenodd;clip-rule:evenodd;stroke-linejoin:round;stroke-miterlimit:1.41421;"><path d="M51.12,61.877c-9.89,-4.134 -13.05,-7.624 -13.05,-15.087c0,-4.483 3.02,-3.02 4.34,-11.227c0.55,-3.406 3.217,-0.056 3.727,-7.83c0,-3.096 -1.457,-3.87 -1.457,-3.87c0,0 0.74,-4.583 1.03,-8.11c0.36,-4.396 -2.21,-15.753 -15.94,-15.753c-13.72,0 -16.3,11.357 -15.94,15.753c0.29,3.527 1.03,8.11 1.03,8.11c0,0 -1.46,0.774 -1.46,3.87c0.52,7.774 3.18,4.424 3.727,7.83c1.333,8.207 4.353,6.744 4.353,11.227c0,7.463 -3.16,10.953 -13.05,15.087c-3.02,1.26 -8.43,3.21 -8.43,7.906l0,18.217l69.47,0c0,0 0,-10.776 0,-13.66c0,-4.283 -8.43,-8.317 -18.35,-12.463ZM100,88c0,0 -0.2,-18.937 -1.35,-20.896c-1.72,-2.924 -5.73,-4.934 -13.17,-8.044c-7.42,-3.1 -9.79,-5.713 -9.79,-11.313c0,-3.367 2.26,-2.267 3.26,-8.42c0.41,-2.557 2.41,-0.044 2.79,-5.873c0,-2.324 -1.09,-2.904 -1.09,-2.904c0,0 0.56,-3.437 0.77,-6.083c0.27,-3.297 -1.66,-11.814 -11.95,-11.814c-10.3,0 -12.23,8.517 -11.96,11.814c0.22,2.646 0.77,6.083 0.77,6.083c0,0 -1.09,0.58 -1.09,2.904c0.39,5.829 2.38,3.316 2.8,5.873c0.99,6.153 3.26,5.053 3.26,8.42c0,3.806 -1.1,6.233 -4.14,8.373c16.2,8.11 18.38,9.763 18.38,17.017l0,14.863l22.51,0Z" style="fill:#fff;fill-rule:nonzero;"/></svg>