<?xml version="1.0" standalone="no"?><!DOCTYPE svg PUBLIC "-//W3C//DTD SVG 1.1//EN" "http://www.w3.org/Graphics/SVG/1.1/DTD/svg11.dtd"><svg width="100%" height="100%" viewBox="0 0 100 88" version="1.1" xmlns="http://www.w3.org/2000/svg" xmlns:xlink="http://www.w3.org/1999/xlink" xml:space="preserve" style="fill-rule:evenodd;clip-rule:evenodd;stroke-linejoin:round;stroke-miterlimit:1.41421;"><path d="M90,64.5l-80,0l0,-55.5l80,0l0,55.5ZM90,0l-80,0c-5.5,0 -10,4.5 -10,10l0,55c0,5.5 4.41,10.88 9.81,11.96l21.86,4.37c0,0 -18.82,6.67 -6.67,6.67l50,0c12.15,0 -6.67,-6.67 -6.67,-6.67l21.87,-4.37c5.39,-1.08 9.8,-6.46 9.8,-11.96l0,-55c0,-5.5 -4.5,-10 -10,-10Z" style="fill:#fff;fill-rule:nonzero;"/></svg>