<?xml version="1.0" standalone="no"?><!DOCTYPE svg PUBLIC "-//W3C//DTD SVG 1.1//EN" "http://www.w3.org/Graphics/SVG/1.1/DTD/svg11.dtd"><svg width="100%" height="100%" viewBox="0 0 64 100" version="1.1" xmlns="http://www.w3.org/2000/svg" xmlns:xlink="http://www.w3.org/1999/xlink" xml:space="preserve" style="fill-rule:evenodd;clip-rule:evenodd;stroke-linejoin:round;stroke-miterlimit:1.41421;"><path d="M62,36.215l-3,0c-1.1,0 -2,0.9 -2,2l0,13.785c0,6.686 -5.27,18 -25,18c-19.73,0 -25,-11.314 -25,-18l0,-13.785c0,-1.1 -0.9,-2 -2,-2l-3,0c-1.1,0 -2,0.9 -2,2l0,13.785c0,11.184 8.21,23.153 27,24.801l0,13.199l-13,0c-1.1,0 -2,0.899 -2,2l0,6c0,1.1 0.9,2 2,2l36,0c1.1,0 2,-0.9 2,-2l0,-6c0,-1.101 -0.9,-2 -2,-2l-13,0l0,-13.199c18.79,-1.648 27,-13.617 27,-24.801l0,-13.785c0,-1.1 -0.9,-2 -2,-2Z" style="fill:#fff;fill-rule:nonzero;"/><path d="M32,60c11.73,0 15,-4.818 15,-8l0,-15.785l-30,0l0,15.785c0,3.182 3.27,8 15,8Z" style="fill:#fff;fill-rule:nonzero;"/><path d="M47,8c0,-3.183 -3.27,-8 -15,-8c-11.73,0 -15,4.817 -15,8l0,21.215l30,0l0,-21.215Z" style="fill:#fff;fill-rule:nonzero;"/></svg>