<?xml version="1.0" standalone="no"?><!DOCTYPE svg PUBLIC "-//W3C//DTD SVG 1.1//EN" "http://www.w3.org/Graphics/SVG/1.1/DTD/svg11.dtd"><svg width="100%" height="100%" viewBox="0 0 101 76" version="1.1" xmlns="http://www.w3.org/2000/svg" xmlns:xlink="http://www.w3.org/1999/xlink" xml:space="preserve" style="fill-rule:evenodd;clip-rule:evenodd;stroke-linejoin:round;stroke-miterlimit:1.41421;"><path d="M84.832,68.857c-0.32,1.92 6.42,5.083 7.057,-0.544c2.893,-25.356 -2.077,-32.656 -2.077,-32.656l-6.97,3.903c0,0 5.91,5.63 1.99,29.297ZM97.552,24.68l-41.619,-23.31c-3.26,-1.827 -8.601,-1.827 -11.861,0l-41.62,23.31c-3.269,1.827 -3.269,4.813 0,6.64l41.62,23.31c3.26,1.823 8.601,1.823 11.861,0l26.909,-15.07l-29.179,-6.833c-1.131,0.276 -2.361,0.433 -3.661,0.433c-5.26,0 -9.52,-2.533 -9.52,-5.66c0,-3.13 4.26,-5.663 9.52,-5.663c4.08,0 7.55,1.53 8.901,3.676l30.909,10.144l7.74,-4.337c3.27,-1.827 3.27,-4.813 0,-6.64ZM16.512,49.197c2.32,9.393 5.27,13.5 15.11,17.803c9.84,4.303 14.517,9 18.38,9c3.86,0 8.24,-4.113 18.08,-8.417c9.851,-4.303 7.22,-5.613 9.54,-15.01l-27.62,13.427l-33.49,-16.803Z" style="fill:#fff;fill-rule:nonzero;"/></svg>