<?xml version="1.0" standalone="no"?><!DOCTYPE svg PUBLIC "-//W3C//DTD SVG 1.1//EN" "http://www.w3.org/Graphics/SVG/1.1/DTD/svg11.dtd"><svg width="100%" height="100%" viewBox="0 0 90 91" version="1.1" xmlns="http://www.w3.org/2000/svg" xmlns:xlink="http://www.w3.org/1999/xlink" xml:space="preserve" style="fill-rule:evenodd;clip-rule:evenodd;stroke-linejoin:round;stroke-miterlimit:1.41421;"><path d="M32.735,56.36l55.342,-15.81c1.057,-0.3 1.923,-1.45 1.923,-2.55l0,-27.5l-70.5,0l0,-8.5c0,-1.1 -0.9,-2 -2,-2l-15.5,0c-1.101,0 -2,0.9 -2,2l0,8l9.717,0l9.839,45.28l0.944,4.72l0,7.5c0,1.1 0.899,2 2,2l65.5,0c1.1,0 2,-0.9 2,-2l0,-7.5l-56.24,0c-5.748,0 -5.865,-2.25 -1.025,-3.64ZM64.999,80c0,5.52 4.476,10 10.001,10c5.524,0 9.999,-4.48 9.999,-10c0,-5.52 -4.475,-10 -9.999,-10c-5.525,0 -10.001,4.48 -10.001,10ZM14.999,80c0,5.52 4.476,10 10.001,10c5.524,0 9.999,-4.48 9.999,-10c0,-5.52 -4.475,-10 -9.999,-10c-5.525,0 -10.001,4.48 -10.001,10Z" style="fill:#fff;fill-rule:nonzero;"/></svg>