<?xml version="1.0" standalone="no"?><!DOCTYPE svg PUBLIC "-//W3C//DTD SVG 1.1//EN" "http://www.w3.org/Graphics/SVG/1.1/DTD/svg11.dtd"><svg width="100%" height="100%" viewBox="0 0 39 29" version="1.1" xmlns="http://www.w3.org/2000/svg" xmlns:xlink="http://www.w3.org/1999/xlink" xml:space="preserve" style="fill-rule:evenodd;clip-rule:evenodd;stroke-linejoin:round;stroke-miterlimit:1.41421;"><path id="Forma 1" d="M39,3.534l0,11.935c0,0 -2.527,0.503 -3.047,0.569c-0.519,0.066 -2.15,0.599 -3.331,-0.55c-1.823,-1.765 -8.298,-8.275 -8.298,-8.275c0,0 -1.116,-1.107 -2.909,-0.15c-1.646,0.877 -4.085,2.161 -5.104,2.662c-1.926,1.036 -3.522,-0.608 -3.522,-1.861c0,-0.971 0.6,-1.63 1.457,-2.115c2.323,-1.424 7.22,-4.203 9.259,-5.298c1.24,-0.667 2.133,-0.724 3.835,0.726c2.096,1.782 3.961,3.406 3.961,3.406c0,0 0.609,0.513 1.579,0.307c2.383,-0.51 6.12,-1.356 6.12,-1.356ZM13.228,23.756c0.313,-0.814 0.208,-1.725 -0.393,-2.35c-0.54,-0.559 -1.329,-0.706 -2.081,-0.532c0.21,-0.754 0.094,-1.557 -0.449,-2.123c-0.542,-0.558 -1.329,-0.708 -2.081,-0.532c0.209,-0.753 0.093,-1.555 -0.45,-2.12c-0.851,-0.883 -2.323,-0.845 -3.29,0.087c-0.962,0.933 -1.578,2.624 -0.72,3.619c0.857,0.99 1.842,0.387 2.593,0.214c-0.209,0.753 -0.835,1.453 -0.064,2.439c0.77,0.986 1.841,0.388 2.593,0.217c-0.21,0.749 -0.808,1.52 -0.067,2.434c0.748,0.916 1.972,0.428 2.781,0.174c-0.312,0.811 -0.98,1.686 -0.122,2.666c0.857,0.987 2.838,0.53 3.806,-0.403c0.964,-0.933 1.057,-2.411 0.208,-3.296c-0.586,-0.608 -1.459,-0.749 -2.264,-0.494ZM30.881,17.547c-6.994,-7.07 -3.704,-3.743 -7.468,-7.556c0,0 -1.131,-1.138 -2.622,-0.477c-1.047,0.463 -2.394,1.095 -3.408,1.578c-1.114,0.59 -1.916,0.773 -2.292,0.77c-2.154,-0.014 -3.901,-1.764 -3.901,-3.939c0,-1.411 0.741,-2.639 1.846,-3.337c1.554,-1.087 5.131,-3.01 5.131,-3.01c0,0 -1.09,-1.396 -3.477,-1.396c-2.386,0 -7.373,3.302 -7.373,3.302c0,0 -1.414,0.916 -3.43,0.091l-3.887,-1.368l0,13.656c0,0 1.11,0.325 2.107,0.737c0.225,-0.65 0.589,-1.249 1.093,-1.744c1.654,-1.593 4.396,-1.61 5.901,-0.043c0.453,0.476 0.77,1.044 0.931,1.672c0.607,0.19 1.156,0.525 1.597,0.985c0.455,0.473 0.77,1.044 0.933,1.669c0.606,0.189 1.155,0.526 1.597,0.986c0.499,0.52 0.832,1.148 0.987,1.828c0.633,0.187 1.205,0.534 1.666,1.01c0.905,0.939 1.226,2.214 1.031,3.443c0.002,0 0.005,0 0.006,0.003c0.015,0.019 0.56,0.634 0.901,0.981c0.667,0.675 1.755,0.675 2.424,0c0.665,-0.675 0.668,-1.773 0,-2.451c-0.024,-0.024 -2.405,-2.543 -2.214,-2.738c0.191,-0.194 3.225,2.998 3.281,3.057c0.666,0.673 1.755,0.673 2.423,0c0.668,-0.675 0.666,-1.774 0,-2.45c-0.032,-0.031 -0.169,-0.164 -0.22,-0.216c0,0 -3.008,-2.71 -2.779,-2.941c0.232,-0.233 3.969,3.292 3.975,3.292c0.672,0.612 1.706,0.607 2.353,-0.046c0.628,-0.636 0.642,-1.641 0.084,-2.319c-0.011,-0.036 -2.848,-3.032 -2.626,-3.258c0.224,-0.228 3.031,2.693 3.037,2.699c0.664,0.674 1.754,0.674 2.423,0c0.666,-0.673 0.666,-1.773 0,-2.452c-0.009,-0.006 -0.021,-0.012 -0.03,-0.018Z" style="fill:#fff;fill-rule:nonzero;"/></svg>