<?xml version="1.0" standalone="no"?><!DOCTYPE svg PUBLIC "-//W3C//DTD SVG 1.1//EN" "http://www.w3.org/Graphics/SVG/1.1/DTD/svg11.dtd"><svg width="100%" height="100%" viewBox="0 0 86 90" version="1.1" xmlns="http://www.w3.org/2000/svg" xmlns:xlink="http://www.w3.org/1999/xlink" xml:space="preserve" style="fill-rule:evenodd;clip-rule:evenodd;stroke-linejoin:round;stroke-miterlimit:1.41421;"><path d="M76.357,60.03c-1.43,0.582 -11.06,-7.013 -17.22,-21.334c-6.15,-14.317 -5.37,-27.408 -3.94,-27.988c1.43,-0.582 10.82,8.579 16.97,22.898c6.15,14.317 5.62,25.842 4.19,26.424ZM79.117,30.147c-7.92,-18.422 -20.66,-32.452 -27.11,-29.831c-10.95,4.449 6.52,25.817 -47.23,47.668c-4.65,1.887 -5.82,9.441 -3.88,13.957c1.94,4.515 8.29,9.01 12.93,7.123c0.81,-0.327 3.76,-1.276 3.76,-1.276c3.31,4.45 6.79,1.811 8.02,4.639c1.47,3.398 4.69,10.785 5.78,13.298c1.1,2.511 3.58,4.838 5.38,4.154c1.8,-0.684 7.91,-3.012 10.25,-3.901c2.34,-0.89 2.9,-2.974 2.18,-4.619c-0.77,-1.773 -3.93,-2.292 -4.83,-4.361c-0.9,-2.068 -3.85,-8.696 -4.69,-10.784c-1.16,-2.842 1.29,-5.152 4.85,-5.523c24.46,-2.55 29.04,12.561 37.37,9.173c6.44,-2.621 5.13,-21.295 -2.78,-39.717Z" style="fill:#010203;fill-rule:nonzero;"/></svg>