<?xml version="1.0" standalone="no"?><!DOCTYPE svg PUBLIC "-//W3C//DTD SVG 1.1//EN" "http://www.w3.org/Graphics/SVG/1.1/DTD/svg11.dtd"><svg width="100%" height="100%" viewBox="0 0 100 80" version="1.1" xmlns="http://www.w3.org/2000/svg" xmlns:xlink="http://www.w3.org/1999/xlink" xml:space="preserve" style="fill-rule:evenodd;clip-rule:evenodd;stroke-linejoin:round;stroke-miterlimit:1.41421;"><path d="M90.1,16l-60.1,0l0,-6l60.1,0l0,6ZM90.1,70l-80.2,0l0,-46l80.2,0l0,46ZM9.25,13c0,-2.02 1.677,-3.65 3.75,-3.65c2.073,0 3.75,1.63 3.75,3.65c0,2.02 -1.677,3.65 -3.75,3.65c-2.073,0 -3.75,-1.63 -3.75,-3.65ZM23,9.35c2.073,0 3.75,1.63 3.75,3.65c0,2.02 -1.677,3.65 -3.75,3.65c-2.073,0 -3.75,-1.63 -3.75,-3.65c0,-2.02 1.677,-3.65 3.75,-3.65ZM90,0l-80,0c-5.5,0 -10,4.5 -10,10l0,60c0,5.5 4.5,10 10,10l80,0c5.5,0 10,-4.5 10,-10l0,-60c0,-5.5 -4.5,-10 -10,-10Z" style="fill:#010203;fill-rule:nonzero;"/></svg>