<?xml version="1.0" standalone="no"?><!DOCTYPE svg PUBLIC "-//W3C//DTD SVG 1.1//EN" "http://www.w3.org/Graphics/SVG/1.1/DTD/svg11.dtd"><svg width="100%" height="100%" viewBox="0 0 39 44" version="1.1" xmlns="http://www.w3.org/2000/svg" xmlns:xlink="http://www.w3.org/1999/xlink" xml:space="preserve" style="fill-rule:evenodd;clip-rule:evenodd;stroke-linejoin:round;stroke-miterlimit:1.41421;"><path d="M36,43.987l-33,0c-1.657,0 -3,-1.328 -3,-2.966l0,-32.621c0,-1.637 1.343,-2.965 3,-2.965l3,0l0,1.483c0,2.456 2.014,4.448 4.5,4.448c2.485,0 4.5,-1.992 4.5,-4.448l0,-1.483l9,0l0,1.483c0,2.456 2.015,4.448 4.5,4.448c2.485,0 4.5,-1.992 4.5,-4.448l0,-1.483l3,0c1.657,0 3,1.328 3,2.965l0,32.621c0,1.638 -1.343,2.966 -3,2.966ZM36,15.814l-33,0l0,25.207l33,0l0,-25.207ZM10.5,23.228l-4.5,0l0,-4.448l4.5,0l0,4.448ZM10.5,30.642l-4.5,0l0,-4.448l4.5,0l0,4.448ZM10.5,38.056l-4.5,0l0,-4.449l4.5,0l0,4.449ZM18,23.228l-4.5,0l0,-4.448l4.5,0l0,4.448ZM18,30.642l-4.5,0l0,-4.448l4.5,0l0,4.448ZM18,38.056l-4.5,0l0,-4.449l4.5,0l0,4.449ZM25.5,23.228l-4.5,0l0,-4.448l4.5,0l0,4.448ZM25.5,30.642l-4.5,0l0,-4.448l4.5,0l0,4.448ZM25.5,38.056l-4.5,0l0,-4.449l4.5,0l0,4.449ZM33,23.228l-4.5,0l0,-4.448l4.5,0l0,4.448ZM33,30.642l-4.5,0l0,-4.448l4.5,0l0,4.448ZM33,38.056l-4.5,0l0,-4.449l4.5,0l0,4.449ZM28.453,9.883c-1.631,0 -2.953,-1.307 -2.953,-2.919l0,-3.058c0,-1.612 1.322,-2.919 2.953,-2.919c1.631,0 2.953,1.307 2.953,2.919l0,3.058c0,1.612 -1.322,2.919 -2.953,2.919ZM10.453,9.883c-1.631,0 -2.953,-1.307 -2.953,-2.919l0,-3.058c0,-1.612 1.322,-2.919 2.953,-2.919c1.631,0 2.953,1.307 2.953,2.919l0,3.058c0,1.612 -1.322,2.919 -2.953,2.919Z" style="fill:#fff;fill-rule:nonzero;"/></svg>