<?xml version="1.0" standalone="no"?><!DOCTYPE svg PUBLIC "-//W3C//DTD SVG 1.1//EN" "http://www.w3.org/Graphics/SVG/1.1/DTD/svg11.dtd"><svg width="100%" height="100%" viewBox="0 0 20 20" version="1.1" xmlns="http://www.w3.org/2000/svg" xmlns:xlink="http://www.w3.org/1999/xlink" xml:space="preserve" style="fill-rule:evenodd;clip-rule:evenodd;stroke-linejoin:round;stroke-miterlimit:1.41421;"><path d="M10.127,0.148c0.46,0.009 0.917,0.044 1.372,0.113c0.92,0.141 1.82,0.414 2.664,0.808c1.003,0.469 1.926,1.109 2.718,1.883c0.792,0.773 1.453,1.679 1.946,2.67c0.414,0.832 0.708,1.722 0.871,2.636c0.184,1.027 0.204,2.084 0.059,3.118c-0.141,1.003 -0.438,1.983 -0.877,2.895c-0.516,1.068 -1.225,2.041 -2.084,2.86c-0.889,0.847 -1.936,1.527 -3.073,1.992c-1.179,0.482 -2.449,0.729 -3.723,0.729c-1.274,0 -2.544,-0.247 -3.723,-0.729c-1.137,-0.465 -2.184,-1.145 -3.073,-1.992c-0.859,-0.819 -1.568,-1.792 -2.084,-2.86c-0.439,-0.912 -0.736,-1.892 -0.877,-2.895c-0.145,-1.034 -0.125,-2.091 0.059,-3.118c0.163,-0.914 0.457,-1.804 0.871,-2.636c0.493,-0.991 1.154,-1.897 1.946,-2.67c0.792,-0.774 1.715,-1.414 2.718,-1.883c0.844,-0.394 1.744,-0.667 2.664,-0.808c0.455,-0.069 0.912,-0.104 1.372,-0.113c0.127,0 0.127,0 0.254,0ZM9.897,2.015c-0.373,0.007 -0.745,0.035 -1.113,0.091c-0.745,0.114 -1.474,0.335 -2.156,0.654c-1.603,0.749 -2.934,2.033 -3.74,3.607c-0.342,0.668 -0.589,1.384 -0.731,2.121c-0.165,0.865 -0.187,1.757 -0.065,2.629c0.114,0.812 0.354,1.605 0.71,2.343c0.418,0.867 0.993,1.656 1.69,2.319c0.721,0.688 1.569,1.239 2.491,1.616c0.956,0.391 1.985,0.591 3.017,0.591c1.032,0 2.061,-0.2 3.017,-0.591c0.922,-0.377 1.77,-0.928 2.491,-1.616c0.697,-0.663 1.272,-1.452 1.69,-2.319c0.356,-0.738 0.596,-1.531 0.71,-2.343c0.122,-0.872 0.1,-1.764 -0.065,-2.629c-0.142,-0.737 -0.389,-1.453 -0.731,-2.121c-0.806,-1.574 -2.137,-2.858 -3.74,-3.607c-0.682,-0.319 -1.411,-0.54 -2.156,-0.654c-0.368,-0.056 -0.74,-0.084 -1.113,-0.091c-0.103,-0.001 -0.103,-0.001 -0.206,0Z" style="fill:#7b9bab;fill-rule:nonzero;"/><path d="M12.253,12.008l-3.053,0c-0.421,0 -0.761,-0.341 -0.761,-0.762l0,-4.632c0,-0.42 0.34,-0.761 0.761,-0.761c0.421,0 0.761,0.341 0.761,0.761l0,3.871l2.292,0c0.423,0.002 0.761,0.343 0.761,0.761c0,0.42 -0.338,0.759 -0.761,0.762l0,0Z" style="fill:#7b9bab;"/></svg>