<?xml version="1.0" standalone="no"?><!DOCTYPE svg PUBLIC "-//W3C//DTD SVG 1.1//EN" "http://www.w3.org/Graphics/SVG/1.1/DTD/svg11.dtd"><svg width="100%" height="100%" viewBox="0 0 1024 1024" version="1.1" xmlns="http://www.w3.org/2000/svg" xmlns:xlink="http://www.w3.org/1999/xlink" xml:space="preserve" style="fill-rule:evenodd;clip-rule:evenodd;stroke-linejoin:round;stroke-miterlimit:1.41421;"><path d="M634,740c-64,-22 -108,-46 -132,-70c-26,-26 -38,-58 -36,-98c0,-22 8,-36 22,-46c12,-10 24,-36 34,-78c4,-16 12,-24 24,-26c12,-2 20,-24 24,-62c-2,-18 -4,-28 -10,-34c-6,-6 -8,-10 -8,-10l4,-30c4,-18 6,-38 8,-60c4,-28 -6,-64 -34,-106c-28,-42 -86,-64 -172,-68c-86,4 -142,26 -170,68c-28,42 -40,78 -34,106c2,22 4,42 8,60l4,30c0,0 -4,4 -10,10c-6,6 -8,16 -8,34c4,38 12,60 24,62c10,2 18,10 24,26c10,42 20,68 34,78c14,10 20,24 22,46c0,40 -12,72 -36,98c-26,24 -70,48 -132,70c-8,2 -20,6 -36,10c-16,4 -32,10 -48,18l0,204l820,0l0,-106c0,-18 -16,-36 -46,-58c-30,-22 -76,-44 -140,-68Z" style="fill:#000;fill-rule:nonzero;"/><path d="M597.508,190.24c18.355,-4.41 39.358,-7.137 63.068,-8.24c72.446,3.37 121.304,21.902 144.891,57.283c23.587,35.38 32.011,65.706 28.642,89.293c-1.685,18.533 -3.37,35.381 -6.739,50.544l-3.37,25.271c0,0 1.685,3.37 6.739,8.424c5.054,5.055 6.739,13.478 8.424,28.642c-3.37,32.01 -10.109,50.543 -20.217,52.228c-10.109,1.685 -16.848,8.424 -20.218,21.902c-8.424,35.38 -18.532,57.283 -28.641,65.706c-11.794,8.424 -18.533,20.218 -18.533,38.75c-1.684,33.696 8.424,60.653 30.326,82.555c20.218,20.217 57.283,40.435 111.196,58.967c53.913,20.218 92.663,38.75 117.935,57.283c25.272,18.532 38.75,33.695 38.75,48.859l0,89.293l-199.109,0l0,-100.157c0,-17.503 -15.558,-35.006 -44.73,-56.399c-29.172,-21.393 -73.902,-42.785 -136.136,-66.123c-50.098,-17.221 -87.594,-35.703 -112.486,-54.431c9.322,-17.193 13.983,-36.966 13.983,-59.847c-1.685,-18.532 -6.74,-30.326 -18.533,-38.75c-10.483,-7.488 -18.304,-25.625 -25.829,-54.413c0.295,-0.219 0.594,-0.436 0.895,-0.652c11.669,-9.724 23.338,-35.006 33.062,-75.847c3.89,-15.558 11.669,-23.337 23.337,-25.282c11.669,-1.945 19.448,-23.337 23.338,-60.288c-1.945,-17.504 -3.89,-27.228 -9.724,-33.062c-5.834,-5.834 -7.779,-9.724 -7.779,-9.724l3.889,-29.172c3.89,-17.503 5.835,-36.951 7.78,-58.344c1.863,-13.042 0.602,-27.87 -4.211,-44.269Z" style="fill:#000;"/></svg>