<?xml version="1.0" standalone="no"?>
<!DOCTYPE svg PUBLIC "-//W3C//DTD SVG 1.1//EN" "http://www.w3.org/Graphics/SVG/1.1/DTD/svg11.dtd">
<svg width="100%" height="100%" viewBox="0 0 30 20" version="1.1" xmlns="http://www.w3.org/2000/svg" xmlns:xlink="http://www.w3.org/1999/xlink" xml:space="preserve" style="fill-rule:evenodd;clip-rule:evenodd;stroke-linejoin:round;stroke-miterlimit:1.41421;">
    <path d="M22.058,13.09C22.058,11.237 19.927,8.731 17.051,7.999C18.253,7.189 19.08,5.588 19.08,4.146C19.08,2.114 17.442,0.466 15.413,0.466C13.388,0.466 11.745,2.114 11.745,4.146C11.745,5.588 12.573,7.189 13.774,7.999C10.902,8.731 8.771,11.237 8.771,13.09C8.771,15.284 22.058,15.284 22.058,13.09L22.058,13.09ZM25.8,14.735L28.695,17.398L2.13,17.398L5.029,14.735L0.921,17.398L0.921,19.442L29.904,19.442L29.904,17.398L25.8,14.735ZM21.345,16.699L26.304,16.699L24.524,15.047L21.573,15.047L21.345,16.699Z" style="fill:rgb(181,204,223);fill-rule:nonzero;"/>
</svg>
