<?xml version="1.0" standalone="no"?>
<!DOCTYPE svg PUBLIC "-//W3C//DTD SVG 1.1//EN" "http://www.w3.org/Graphics/SVG/1.1/DTD/svg11.dtd">
<svg width="100%" height="100%" viewBox="0 0 534 534" version="1.1" xmlns="http://www.w3.org/2000/svg" xmlns:xlink="http://www.w3.org/1999/xlink" xml:space="preserve" style="fill-rule:evenodd;clip-rule:evenodd;stroke-linejoin:round;stroke-miterlimit:1.41421;">
    <path d="M266.667,0C119.391,0 0,37.309 0,83.333L0,133.333L200,333.333L200,500C200,518.409 229.847,533.333 266.667,533.333C303.485,533.333 333.334,518.409 333.334,500L333.334,333.333L533.334,133.333L533.334,83.333C533.333,37.309 413.942,0 266.667,0ZM49.158,72.304C61.629,65.19 79.149,58.439 99.824,52.779C145.629,40.239 204.88,33.333 266.667,33.333C328.453,33.333 387.706,40.239 433.51,52.779C454.185,58.439 471.704,65.19 484.176,72.304C492.402,76.994 496.845,80.963 498.914,83.333C496.845,85.704 492.4,89.67 484.176,94.362C471.704,101.476 454.185,108.227 433.51,113.887C387.707,126.427 328.454,133.333 266.667,133.333C204.88,133.333 145.629,126.427 99.824,113.887C79.149,108.226 61.629,101.475 49.158,94.362C40.933,89.671 36.489,85.704 34.419,83.333C36.489,80.963 40.933,76.996 49.158,72.304Z" style="fill:black;fill-rule:nonzero;"/>
</svg>
