<?xml version="1.0" standalone="no"?><!DOCTYPE svg PUBLIC "-//W3C//DTD SVG 1.1//EN" "http://www.w3.org/Graphics/SVG/1.1/DTD/svg11.dtd"><svg width="100%" height="100%" viewBox="0 0 1024 1024" version="1.1" xmlns="http://www.w3.org/2000/svg" xmlns:xlink="http://www.w3.org/1999/xlink" xml:space="preserve" style="fill-rule:evenodd;clip-rule:evenodd;stroke-linejoin:round;stroke-miterlimit:1.41421;"><path d="M279.42,936.509l-198.667,0c-13.92,0 -25.308,-5.062 -35.432,-13.919c-10.123,-10.124 -15.184,-21.512 -15.184,-35.432l0,-149.316c0,-13.92 5.061,-25.308 15.184,-35.432c10.124,-10.123 21.512,-13.919 35.432,-13.919l198.667,0c13.92,0 25.308,3.796 35.431,13.919c10.124,10.124 15.185,21.512 15.185,35.432l0,149.316c0,13.92 -5.061,25.308 -15.185,35.432c-10.122,8.857 -21.511,13.919 -35.431,13.919ZM611.67,936.509l-199.933,0c-13.919,0 -25.308,-5.062 -35.431,-13.919c-10.123,-10.124 -13.919,-21.512 -13.919,-35.432l0,-149.316c0,-13.92 3.796,-25.308 13.919,-35.432c10.123,-10.123 21.512,-13.919 35.431,-13.919l199.933,0c12.654,0 24.043,3.796 34.166,13.919c10.123,10.124 15.185,21.512 15.185,35.432l0,149.316c0,13.92 -5.062,25.308 -15.185,35.432c-10.123,8.857 -21.511,13.919 -34.166,13.919ZM943.247,936.509l-198.667,0c-13.92,0 -25.308,-5.062 -35.431,-13.919c-10.124,-10.124 -15.185,-21.512 -15.185,-35.432l0,-149.316c0,-13.92 5.061,-25.308 15.185,-35.432c10.123,-10.123 21.511,-13.919 35.431,-13.919l198.667,0c13.92,0 25.308,3.796 35.432,13.919c10.123,10.124 15.184,21.512 15.184,35.432l0,149.316c0,13.92 -5.061,25.308 -15.184,35.432c-10.123,8.857 -21.511,13.919 -35.432,13.919ZM279.42,635.408l-198.667,0c-13.92,0 -25.308,-5.061 -35.432,-15.184c-10.123,-10.124 -15.184,-21.512 -15.184,-35.432l0,-149.317c0,-13.919 5.061,-25.307 15.184,-35.431c10.124,-10.123 21.512,-13.919 35.432,-13.919l198.667,0c13.92,0 25.308,3.796 35.431,13.919c10.124,10.124 15.185,21.512 15.185,35.431l0,149.317c0,13.92 -5.061,25.308 -15.185,35.432c-10.122,10.122 -21.511,15.184 -35.431,15.184ZM611.67,635.408l-199.933,0c-13.919,0 -25.308,-5.061 -35.431,-15.184c-10.123,-10.124 -13.919,-21.512 -13.919,-35.432l0,-149.317c0,-13.919 3.796,-25.307 13.919,-35.431c10.123,-10.123 21.512,-13.919 35.431,-13.919l199.933,0c12.654,0 24.043,3.796 34.166,13.919c10.123,10.124 15.185,21.512 15.185,35.431l0,149.317c0,13.92 -5.062,25.308 -15.185,35.432c-10.123,10.122 -21.511,15.184 -34.166,15.184ZM943.247,635.408l-198.667,0c-13.92,0 -25.308,-5.061 -35.431,-15.184c-10.124,-10.124 -15.185,-21.512 -15.185,-35.432l0,-149.317c0,-13.919 5.061,-25.307 15.185,-35.431c10.123,-10.123 21.511,-13.919 35.431,-13.919l198.667,0c13.92,0 25.308,3.796 35.432,13.919c10.123,10.124 15.184,21.512 15.184,35.431l0,149.317c0,13.92 -5.061,25.308 -15.184,35.432c-10.123,10.122 -21.511,15.184 -35.432,15.184ZM279.42,335.509l-198.667,0c-13.92,0 -25.308,-5.062 -35.432,-13.919c-10.123,-10.124 -15.184,-21.512 -15.184,-35.432l0,-149.316c0,-13.92 5.061,-25.308 15.184,-35.432c10.124,-10.123 21.512,-13.919 35.432,-13.919l198.667,0c13.92,0 25.308,3.796 35.431,13.919c10.124,10.124 15.185,21.512 15.185,35.432l0,149.316c0,13.92 -5.061,25.308 -15.185,35.432c-10.122,8.857 -21.511,13.919 -35.431,13.919ZM611.67,335.509l-199.933,0c-13.919,0 -25.308,-5.062 -35.431,-13.919c-10.123,-10.124 -13.919,-21.512 -13.919,-35.432l0,-149.316c0,-13.92 3.796,-25.308 13.919,-35.432c10.123,-10.123 21.512,-13.919 35.431,-13.919l199.933,0c12.654,0 24.043,3.796 34.166,13.919c10.123,10.124 15.185,21.512 15.185,35.432l0,149.316c0,13.92 -5.062,25.308 -15.185,35.432c-10.123,8.857 -21.511,13.919 -34.166,13.919ZM943.247,335.509l-198.667,0c-13.92,0 -25.308,-5.062 -35.431,-13.919c-10.124,-10.124 -15.185,-21.512 -15.185,-35.432l0,-149.316c0,-13.92 5.061,-25.308 15.185,-35.432c10.123,-10.123 21.511,-13.919 35.431,-13.919l198.667,0c13.92,0 25.308,3.796 35.432,13.919c10.123,10.124 15.184,21.512 15.184,35.432l0,149.316c0,13.92 -5.061,25.308 -15.184,35.432c-10.123,8.857 -21.511,13.919 -35.432,13.919Z" style="fill:#000;"/></svg>