<?xml version="1.0" encoding="utf-8"?>
<!-- Generated by IcoMoon.io -->
<!DOCTYPE svg PUBLIC "-//W3C//DTD SVG 1.1//EN" "http://www.w3.org/Graphics/SVG/1.1/DTD/svg11.dtd">
<svg version="1.1" xmlns="http://www.w3.org/2000/svg" xmlns:xlink="http://www.w3.org/1999/xlink" width="1024" height="1024" viewBox="0 0 1024 1024">
<g id="icomoon-ignore">
</g>
<path d="M634 740c-64-22-108-46-132-70-26-26-38-58-36-98 0-22 8-36 22-46 12-10 24-36 34-78 4-16 12-24 24-26s20-24 24-62c-2-18-4-28-10-34s-8-10-8-10l4-30c4-18 6-38 8-60 4-28-6-64-34-106s-86-64-172-68c-86 4-142 26-170 68s-40 78-34 106c2 22 4 42 8 60l4 30c0 0-4 4-10 10s-8 16-8 34c4 38 12 60 24 62 10 2 18 10 24 26 10 42 20 68 34 78s20 24 22 46c0 40-12 72-36 98-26 24-70 48-132 70-8 2-20 6-36 10s-32 10-48 18v204h820v-106c0-18-16-36-46-58s-76-44-140-68zM870 462v-154h-102v154h-154v102h154v154h102v-154h154v-102z"></path>
</svg>
