<?xml version="1.0" encoding="utf-8"?>
<!-- Generated by IcoMoon.io -->
<!DOCTYPE svg PUBLIC "-//W3C//DTD SVG 1.1//EN" "http://www.w3.org/Graphics/SVG/1.1/DTD/svg11.dtd">
<svg version="1.1" xmlns="http://www.w3.org/2000/svg" xmlns:xlink="http://www.w3.org/1999/xlink" width="1024" height="1024" viewBox="0 0 1024 1024">
<g id="icomoon-ignore">
</g>
<path d="M1024 272c0 18-6 34-18 46l-568 568c-12 12-28 18-46 18s-32-6-44-18l-330-330c-12-12-18-26-18-44s6-32 18-44l90-90c12-14 28-20 46-20s32 6 44 20l194 194 434-434c12-12 26-18 44-18s34 6 46 18l90 90c12 12 18 26 18 44z"></path>
</svg>
