<?xml version="1.0" encoding="utf-8"?>
<!-- Generated by IcoMoon.io -->
<!DOCTYPE svg PUBLIC "-//W3C//DTD SVG 1.1//EN" "http://www.w3.org/Graphics/SVG/1.1/DTD/svg11.dtd">
<svg version="1.1" xmlns="http://www.w3.org/2000/svg" xmlns:xlink="http://www.w3.org/1999/xlink" width="1024" height="1024" viewBox="0 0 1024 1024">
<g id="icomoon-ignore">
</g>
<path d="M626 684h114v-58h-114zM740 740h-454v56h454zM456 570h284v-58h-284zM398 512h-112v58h112zM456 228h-170v228h170zM512 342h228v-114h-228zM740 398h-228v58h228zM570 626h-284v58h284zM854 910h-682v-796h682zM854 0h-682c-32 0-60 12-82 34s-32 48-32 80v796c0 32 10 58 32 80s50 34 82 34h682c32 0 58-12 80-34s32-48 34-80v-796c-2-32-12-58-34-80s-48-34-80-34z"></path>
</svg>
