<?xml version="1.0" standalone="no"?><!DOCTYPE svg PUBLIC "-//W3C//DTD SVG 1.1//EN" "http://www.w3.org/Graphics/SVG/1.1/DTD/svg11.dtd"><svg width="100%" height="100%" viewBox="0 0 32 32" version="1.1" xmlns="http://www.w3.org/2000/svg" xmlns:xlink="http://www.w3.org/1999/xlink" xml:space="preserve" style="fill-rule:evenodd;clip-rule:evenodd;stroke-linejoin:round;stroke-miterlimit:1.41421;"><path d="M18,20l0,6l4,0l-6,6l-6,-6l4,0l0,-6l4,0Z" style="fill:#030104;fill-rule:nonzero;"/><path d="M14,12l0,-6l-4,0l6,-6l6,6l-4,0l0,6l-4,0Z" style="fill:#030104;fill-rule:nonzero;"/><path d="M12,18l-6,0l0,4l-6,-6l6,-6l0,4l6,0l0,4Z" style="fill:#030104;fill-rule:nonzero;"/><path d="M20,14l6,0l0,-4l6,6l-6,6l0,-4l-6,0l0,-4Z" style="fill:#030104;fill-rule:nonzero;"/></svg>