<?xml version="1.0" standalone="no"?><!DOCTYPE svg PUBLIC "-//W3C//DTD SVG 1.1//EN" "http://www.w3.org/Graphics/SVG/1.1/DTD/svg11.dtd"><svg width="100%" height="100%" viewBox="0 0 30 31" version="1.1" xmlns="http://www.w3.org/2000/svg" xmlns:xlink="http://www.w3.org/1999/xlink" xml:space="preserve" style="fill-rule:evenodd;clip-rule:evenodd;stroke-linejoin:round;stroke-miterlimit:1.41421;"><path id="servers" d="M18.75,7.5l-1.875,0l0,5.625l7.5,0c2.071,0 3.75,1.679 3.75,3.75l0,5.625l1.875,0l0,7.5l-7.5,0l0,-7.5l1.875,0l0,-3.75c0,-1.036 -0.84,-1.875 -1.875,-1.875l-5.625,0l0,5.625l1.875,0l0,7.5l-7.5,0l0,-7.5l1.875,0l0,-5.625l-5.625,0c-1.036,0 -1.875,0.839 -1.875,1.875l0,3.75l1.875,0l0,7.5l-7.5,0l0,-7.5l1.875,0l0,-5.625c0,-2.071 1.679,-3.75 3.75,-3.75l7.5,0l0,-5.625l-1.875,0l0,-7.5l7.5,0l0,7.5Z" style="fill:#fff;"/></svg>