<?xml version="1.0" standalone="no"?><!DOCTYPE svg PUBLIC "-//W3C//DTD SVG 1.1//EN" "http://www.w3.org/Graphics/SVG/1.1/DTD/svg11.dtd"><svg width="100%" height="100%" viewBox="0 0 1024 1024" version="1.1" xmlns="http://www.w3.org/2000/svg" xmlns:xlink="http://www.w3.org/1999/xlink" xml:space="preserve" style="fill-rule:evenodd;clip-rule:evenodd;stroke-linejoin:round;stroke-miterlimit:1.41421;"><path d="M634,740c-64,-22 -108,-46 -132,-70c-26,-26 -38,-58 -36,-98c0,-22 8,-36 22,-46c12,-10 24,-36 34,-78c4,-16 12,-24 24,-26c12,-2 20,-24 24,-62c-2,-18 -4,-28 -10,-34c-6,-6 -8,-10 -8,-10l4,-30c4,-18 6,-38 8,-60c4,-28 -6,-64 -34,-106c-28,-42 -86,-64 -172,-68c-86,4 -142,26 -170,68c-28,42 -40,78 -34,106c2,22 4,42 8,60l4,30c0,0 -4,4 -10,10c-6,6 -8,16 -8,34c4,38 12,60 24,62c10,2 18,10 24,26c10,42 20,68 34,78c14,10 20,24 22,46c0,40 -12,72 -36,98c-26,24 -70,48 -132,70c-8,2 -20,6 -36,10c-16,4 -32,10 -48,18l0,204l820,0l0,-106c0,-18 -16,-36 -46,-58c-30,-22 -76,-44 -140,-68ZM870,462l-102,0l-154,0l0,102l410,0l0,-102l-154,0Z" style="fill:#000;fill-rule:nonzero;"/></svg>