<?xml version="1.0" standalone="no"?><!DOCTYPE svg PUBLIC "-//W3C//DTD SVG 1.1//EN" "http://www.w3.org/Graphics/SVG/1.1/DTD/svg11.dtd"><svg width="100%" height="100%" viewBox="0 0 47 53" version="1.1" xmlns="http://www.w3.org/2000/svg" xmlns:xlink="http://www.w3.org/1999/xlink" xml:space="preserve" style="fill-rule:evenodd;clip-rule:evenodd;stroke-linejoin:round;stroke-miterlimit:1.41421;"><path d="M45.245,41.759l-13.79,-15.76l13.79,-15.76c2.34,-2.341 2.34,-6.141 0,-8.481c-2.34,-2.35 -6.14,-2.34 -8.49,0l-13.25,15.15l-13.26,-15.15c-2.34,-2.34 -6.14,-2.35 -8.49,0c-2.34,2.34 -2.34,6.14 0,8.481l13.79,15.76l-13.79,15.76c-2.34,2.339 -2.34,6.139 0,8.48c2.35,2.349 6.15,2.349 8.49,0l13.26,-15.151l13.25,15.151c2.35,2.349 6.15,2.349 8.49,0c2.34,-2.341 2.34,-6.141 0,-8.48Z" style="fill:#010203;fill-rule:nonzero;"/></svg>