<?xml version="1.0" standalone="no"?><!DOCTYPE svg PUBLIC "-//W3C//DTD SVG 1.1//EN" "http://www.w3.org/Graphics/SVG/1.1/DTD/svg11.dtd"><svg width="100%" height="100%" viewBox="0 0 29 51" version="1.1" xmlns="http://www.w3.org/2000/svg" xmlns:xlink="http://www.w3.org/1999/xlink" xml:space="preserve" style="fill-rule:evenodd;clip-rule:evenodd;stroke-linejoin:round;stroke-miterlimit:1.41421;"><path d="M26.232,49.99l-2.266,0c-0.739,0 -1.447,-0.27 -1.96,-0.788c-0.516,-0.515 -0.794,-1.193 -0.77,-1.913l0.54,-16.82l-0.093,0c-0.963,0 -1.884,-0.398 -2.54,-1.085c-0.659,-0.686 -0.991,-1.614 -0.921,-2.551l1.581,-21.483c0.219,-3.009 2.802,-5.343 5.901,-5.343c1.81,0 3.294,1.429 3.294,3.191l0,44.165c0,1.47 -1.258,2.627 -2.766,2.627ZM9.93,18.913l-0.609,0l0.904,28.411c0.021,0.709 -0.249,1.388 -0.753,1.899c-0.504,0.51 -1.197,0.78 -1.92,0.78l-2.13,0c-0.725,0 -1.418,-0.27 -1.921,-0.78c-0.504,-0.509 -0.775,-1.181 -0.752,-1.89l0.904,-28.419l-0.428,0c-1.77,0 -3.213,-1.373 -3.213,-3.11l0,-14.118c0,-0.532 0.449,-0.928 0.988,-0.928l0.227,0c0.541,0 1.009,0.398 1.009,0.928l0,9.334c0,0.828 0.654,1.505 1.496,1.505l0.226,0c0.844,0 1.535,-0.677 1.535,-1.505l0,-9.334c0,-0.532 0.43,-0.928 0.971,-0.928l0.229,0c0.54,0 0.947,0.398 0.947,0.928l0,9.334c0,0.828 0.714,1.505 1.557,1.505l0.227,0c0.843,0 1.551,-0.677 1.551,-1.505l0,-9.334c0,-0.532 0.414,-0.928 0.953,-0.928l0.226,0c0.543,0 0.964,0.396 0.966,0.927l0,14.118c0,1.735 -1.419,3.11 -3.19,3.11Z" style="fill:#fff;fill-rule:nonzero;"/></svg>