<?xml version="1.0" standalone="no"?>
<!DOCTYPE svg PUBLIC "-//W3C//DTD SVG 1.1//EN" "http://www.w3.org/Graphics/SVG/1.1/DTD/svg11.dtd">
<svg width="100%" height="100%" viewBox="0 0 30 29" version="1.1" xmlns="http://www.w3.org/2000/svg" xmlns:xlink="http://www.w3.org/1999/xlink" xml:space="preserve" style="fill-rule:evenodd;clip-rule:evenodd;stroke-linejoin:round;stroke-miterlimit:1.41421;">
    <path d="M28.067,28.067C27.467,28.668 26.667,29 25.816,29C24.966,29 24.166,28.668 23.565,28.067L20.532,25.035C20.326,24.828 20.22,24.549 20.242,24.27C20.264,23.987 20.414,23.725 20.652,23.551C21.765,22.74 22.74,21.765 23.551,20.652C23.742,20.39 24.031,20.239 24.343,20.239C24.6,20.239 24.846,20.343 25.034,20.533L28.067,23.565C29.308,24.806 29.308,26.826 28.067,28.067ZM12.63,25.261C5.665,25.261 0,19.595 0,12.63C0,5.666 5.665,0 12.63,0C19.595,0 25.261,5.666 25.261,12.63C25.261,19.595 19.595,25.261 12.63,25.261ZM12.63,3.791C7.756,3.791 3.79,7.756 3.79,12.63C3.79,17.505 7.756,21.47 12.63,21.47C17.504,21.47 21.47,17.505 21.47,12.63C21.47,7.756 17.504,3.791 12.63,3.791Z" style="fill:rgb(0,181,249);fill-rule:nonzero;"/>
</svg>
