<?xml version="1.0" standalone="no"?><!DOCTYPE svg PUBLIC "-//W3C//DTD SVG 1.1//EN" "http://www.w3.org/Graphics/SVG/1.1/DTD/svg11.dtd"><svg width="100%" height="100%" viewBox="0 0 1024 1024" version="1.1" xmlns="http://www.w3.org/2000/svg" xmlns:xlink="http://www.w3.org/1999/xlink" xml:space="preserve" style="fill-rule:evenodd;clip-rule:evenodd;stroke-linejoin:round;stroke-miterlimit:1.41421;"><path d="M854,0c32,0 58,12 80,34c22,22 32,48 34,80l0,271l-114,0l0,-271l-682,0l0,796l110,0l0,114l-110,0c-32,0 -60,-12 -82,-34c-22,-22 -32,-48 -32,-80l0,-796c0,-32 10,-58 32,-80c22,-22 50,-34 82,-34l682,0ZM456,228l0,228l-170,0l0,-228l170,0ZM740,398l0,58l-228,0l0,-58l228,0ZM740,228l0,114l-228,0l0,-114l228,0Z" style="fill:#000;"/><path d="M854,0c32,0 58,12 80,34c22,22 32,48 34,80l0,271l-114,0l0,-271l-682,0l0,796l110,0l0,114l-110,0c-32,0 -60,-12 -82,-34c-22,-22 -32,-48 -32,-80l0,-796c0,-32 10,-58 32,-80c22,-22 50,-34 82,-34l682,0ZM456,228l0,228l-170,0l0,-228l170,0ZM740,517l0,58l-452,0l0,-58l452,0ZM740,228l0,114l-228,0l0,-114l228,0Z" style="fill:#000;"/><path d="M1012,577.695c0,12.112 -4.037,22.877 -12.111,30.951l-382.18,382.18c-8.074,8.074 -18.84,12.111 -30.951,12.111c-12.112,0 -21.531,-4.037 -29.606,-12.111l-222.041,-222.041c-8.074,-8.074 -12.111,-17.494 -12.111,-29.605c0,-12.112 4.037,-21.532 12.111,-29.606l60.557,-60.556c8.074,-9.42 18.84,-13.457 30.951,-13.457c12.111,0 21.531,4.037 29.606,13.457l130.533,130.533l292.017,-292.018c8.075,-8.074 17.495,-12.111 29.606,-12.111c12.111,0 22.877,4.037 30.951,12.111l60.557,60.557c8.074,8.074 12.111,17.494 12.111,29.605Z" style="fill:#000;fill-rule:nonzero;"/></svg>