<?xml version="1.0" standalone="no"?><!DOCTYPE svg PUBLIC "-//W3C//DTD SVG 1.1//EN" "http://www.w3.org/Graphics/SVG/1.1/DTD/svg11.dtd"><svg width="100%" height="100%" viewBox="0 0 32 32" version="1.1" xmlns="http://www.w3.org/2000/svg" xmlns:xlink="http://www.w3.org/1999/xlink" xml:space="preserve" style="fill-rule:evenodd;clip-rule:evenodd;stroke-linejoin:round;stroke-miterlimit:1.41421;"><path d="M15.95,0.356c0.718,0.014 1.433,0.068 2.143,0.176c1.439,0.221 2.844,0.647 4.162,1.263c1.513,0.706 2.908,1.661 4.116,2.813c1.207,1.151 2.226,2.496 3.004,3.97c0.705,1.337 1.212,2.777 1.496,4.261c0.32,1.665 0.362,3.384 0.127,5.063c-0.22,1.567 -0.684,3.097 -1.371,4.522c-0.805,1.67 -1.914,3.19 -3.256,4.47c-1.389,1.324 -3.025,2.387 -4.802,3.114c-1.843,0.753 -3.828,1.139 -5.818,1.139c-1.99,0 -3.975,-0.386 -5.818,-1.139c-1.777,-0.727 -3.413,-1.79 -4.802,-3.114c-1.342,-1.28 -2.451,-2.8 -3.256,-4.47c-0.687,-1.425 -1.151,-2.955 -1.371,-4.522c-0.226,-1.616 -0.196,-3.268 0.092,-4.874c0.255,-1.428 0.715,-2.819 1.361,-4.118c0.77,-1.549 1.803,-2.965 3.041,-4.173c1.239,-1.21 2.68,-2.209 4.249,-2.942c1.318,-0.616 2.723,-1.042 4.162,-1.263c0.71,-0.108 1.425,-0.162 2.143,-0.176c0.199,-0.001 0.199,-0.001 0.398,0ZM15.578,2.356c-0.626,0.012 -1.248,0.059 -1.867,0.154c-1.25,0.191 -2.472,0.561 -3.618,1.097c-1.316,0.615 -2.53,1.446 -3.582,2.449c-1.09,1.039 -2.003,2.26 -2.69,3.6c-0.575,1.121 -0.989,2.323 -1.226,3.56c-0.278,1.45 -0.315,2.946 -0.11,4.408c0.191,1.362 0.594,2.693 1.191,3.931c0.701,1.454 1.667,2.777 2.835,3.891c1.209,1.153 2.633,2.078 4.179,2.711c1.603,0.655 3.33,0.99 5.061,0.99c1.731,0 3.458,-0.335 5.061,-0.99c1.546,-0.633 2.97,-1.558 4.179,-2.711c1.168,-1.114 2.134,-2.437 2.835,-3.891c0.597,-1.238 1,-2.569 1.191,-3.931c0.205,-1.462 0.168,-2.958 -0.11,-4.408c-0.237,-1.237 -0.651,-2.439 -1.226,-3.56c-0.687,-1.34 -1.6,-2.561 -2.69,-3.6c-1.052,-1.003 -2.266,-1.834 -3.582,-2.449c-1.146,-0.536 -2.368,-0.906 -3.618,-1.097c-0.619,-0.095 -1.241,-0.142 -1.867,-0.154c-0.173,-0.001 -0.173,-0.001 -0.346,0Z" style="fill:#fff;fill-rule:nonzero;"/><path d="M14.487,17.364c1.813,1.79 3.855,3.428 4.677,2.606c1.216,-1.216 1.965,-2.275 4.646,-0.121c2.68,2.155 0.621,3.59 -0.556,4.768c-1.359,1.359 -6.425,0.072 -11.434,-4.935c-5.006,-5.008 -6.295,-10.074 -4.935,-11.434c1.178,-1.178 2.614,-3.236 4.767,-0.555c2.155,2.679 1.096,3.429 -0.12,4.645c-0.848,0.849 0.925,2.997 2.78,4.852l0.087,0.087l0.088,0.087Z" style="fill:#fff;"/></svg>