<?xml version="1.0" encoding="UTF-8" standalone="no"?><!DOCTYPE svg PUBLIC "-//W3C//DTD SVG 1.1//EN" "http://www.w3.org/Graphics/SVG/1.1/DTD/svg11.dtd"><svg width="100%" height="100%" viewBox="0 0 52 28" version="1.1" xmlns="http://www.w3.org/2000/svg" xmlns:xlink="http://www.w3.org/1999/xlink" xml:space="preserve" style="fill-rule:evenodd;clip-rule:evenodd;stroke-linejoin:round;stroke-miterlimit:1.41421;"><clipPath id="_clip1"><rect id="Plan-de-travail1" x="0" y="0" width="52" height="28"/></clipPath><g clip-path="url(#_clip1)"><g id="Mute"><rect x="24.712" y="12.647" width="18.446" height="12.306" style="fill:#144194;"/><path d="M33.926,13.985l0.175,0.546l0.573,-0.003l-0.465,0.335l0.18,0.545l-0.463,-0.339l-0.462,0.339l0.18,-0.545l-0.466,-0.335l0.573,0.003l0.175,-0.546l0,0Z" style="fill:#ffed00;fill-rule:nonzero;"/><path d="M33.926,22.194l0.175,0.545l0.573,-0.003l-0.465,0.336l0.18,0.545l-0.463,-0.338l-0.462,0.338l0.18,-0.545l-0.466,-0.336l0.573,0.003l0.175,-0.545l0,0Z" style="fill:#ffed00;fill-rule:nonzero;"/><path d="M31.884,14.531l0.175,0.546l0.573,-0.002l-0.464,0.334l0.179,0.544l-0.463,-0.339l-0.462,0.339l0.179,-0.544l-0.464,-0.334l0.573,0.002l0.174,-0.546Z" style="fill:#ffed00;fill-rule:nonzero;"/><path d="M30.382,16.038l0.174,0.546l0.573,-0.004l-0.466,0.335l0.179,0.545l-0.46,-0.34l-0.463,0.34l0.18,-0.545l-0.467,-0.335l0.574,0.004l0.176,-0.546l0,0Z" style="fill:#ffed00;fill-rule:nonzero;"/><path d="M29.827,18.086l0.173,0.544l0.574,-0.003l-0.465,0.336l0.178,0.543l-0.46,-0.339l-0.462,0.339l0.18,-0.543l-0.467,-0.336l0.574,0.003l0.175,-0.544l0,0Z" style="fill:#ffed00;fill-rule:nonzero;"/><path d="M30.375,20.132l0.175,0.548l0.572,-0.004l-0.465,0.335l0.181,0.544l-0.463,-0.34l-0.463,0.34l0.181,-0.544l-0.466,-0.334l0.572,0.003l0.176,-0.548l0,0Z" style="fill:#ffed00;fill-rule:nonzero;"/><path d="M31.884,21.638l0.175,0.546l0.573,-0.003l-0.464,0.335l0.179,0.545l-0.463,-0.339l-0.462,0.339l0.179,-0.545l-0.464,-0.335l0.573,0.003l0.174,-0.546Z" style="fill:#ffed00;fill-rule:nonzero;"/><path d="M35.97,14.531l-0.175,0.546l-0.574,-0.002l0.466,0.334l-0.18,0.544l0.463,-0.339l0.462,0.339l-0.179,-0.544l0.464,-0.334l-0.571,0.002l-0.176,-0.546l0,0Z" style="fill:#ffed00;fill-rule:nonzero;"/><path d="M37.473,16.038l-0.175,0.546l-0.573,-0.004l0.465,0.335l-0.18,0.545l0.463,-0.34l0.463,0.34l-0.18,-0.545l0.464,-0.335l-0.573,0.004l-0.174,-0.546l0,0Z" style="fill:#ffed00;fill-rule:nonzero;"/><path d="M38.028,18.086l-0.175,0.544l-0.575,-0.003l0.467,0.336l-0.18,0.543l0.463,-0.339l0.462,0.339l-0.179,-0.543l0.464,-0.336l-0.573,0.003l-0.174,-0.544Z" style="fill:#ffed00;fill-rule:nonzero;"/><path d="M37.477,20.132l-0.172,0.548l-0.574,-0.004l0.466,0.335l-0.18,0.544l0.46,-0.34l0.464,0.34l-0.179,-0.544l0.465,-0.334l-0.573,0.003l-0.177,-0.548l0,0Z" style="fill:#ffed00;fill-rule:nonzero;"/><path d="M35.97,21.638l-0.175,0.546l-0.574,-0.003l0.466,0.335l-0.18,0.545l0.463,-0.339l0.462,0.339l-0.179,-0.545l0.464,-0.335l-0.571,0.003l-0.176,-0.546l0,0Z" style="fill:#ffed00;fill-rule:nonzero;"/><path d="M27.654,10.193l0,-1.018c-0.371,-0.317 -1.85,-0.952 -2.752,-1.151l0,0.716c1.031,0.253 2.317,0.999 2.752,1.453" style="fill:#878e91;fill-rule:nonzero;"/><path d="M28.404,11.711l0.877,0c0.026,-1.284 -1.017,-2.079 -1.165,-2.194l0,1.224c0.334,0.542 0.288,0.97 0.288,0.97" style="fill:#878e91;fill-rule:nonzero;"/><path d="M30.585,9.127l0,1.105c0.44,0.461 0.705,0.821 0.915,1.485l0.927,0c-0.248,-1.014 -0.837,-1.843 -1.842,-2.59" style="fill:#878e91;fill-rule:nonzero;"/><path d="M30.02,9.732l0,-0.995c-0.851,-0.55 -2.535,-1.305 -4.216,-1.656l0,0.714c1.616,0.392 3.333,1.229 4.216,1.937" style="fill:#878e91;fill-rule:nonzero;"/><path d="M32.406,9.128l0,-0.984c-1.022,-0.645 -3.125,-1.545 -5.607,-2.069l0,0.713c2.383,0.575 4.192,1.397 5.607,2.34" style="fill:#878e91;fill-rule:nonzero;"/><path d="M33.065,8.563c0,-0.001 -0.002,1.059 -0.002,1.059c0.652,0.517 1.282,1.198 1.703,2.094l0.985,0c-0.338,-1.115 -1.599,-2.468 -2.686,-3.153" style="fill:#878e91;fill-rule:nonzero;"/><path d="M35.066,8.515l0,-0.985c-1.954,-1.155 -4.882,-2.171 -7.207,-2.581l0,0.71c2.626,0.527 5.755,1.826 7.207,2.856" style="fill:#878e91;fill-rule:nonzero;"/><path d="M38.226,11.717l1.031,0c-0.741,-1.777 -2.6,-3.202 -3.468,-3.744l0,1.045c1.315,0.974 1.801,1.671 2.437,2.699" style="fill:#878e91;fill-rule:nonzero;"/><path d="M37.685,7.893l0,-1.02c-1.582,-0.969 -4.784,-2.418 -8.683,-3.169l0,0.741c2.967,0.617 6.749,2.088 8.683,3.448" style="fill:#878e91;fill-rule:nonzero;"/><path d="M41.575,11.717l1.128,0c-1.251,-2.129 -2.683,-3.347 -4.23,-4.354l0,1.07c1.147,0.805 2.375,2.005 3.102,3.284" style="fill:#878e91;fill-rule:nonzero;"/><path d="M24.163,8.54l0,-0.673c-1.015,-0.191 -2.8,-0.312 -3.584,-0.21l0,0.527c1.177,-0.061 2.912,0.158 3.584,0.356" style="fill:#878e91;fill-rule:nonzero;"/><path d="M19.789,8.232l0,-0.503c-1.885,0.197 -3.177,0.844 -3.925,1.396l0,0.433c1.068,-0.861 2.547,-1.218 3.925,-1.326" style="fill:#878e91;fill-rule:nonzero;"/><path d="M15.429,10.01l0,-0.49c-1.734,1.948 0.435,3.569 0.666,3.731l0,-0.666c-1.212,-0.916 -1.07,-2.033 -0.666,-2.575" style="fill:#878e91;fill-rule:nonzero;"/><path d="M16.751,12.998l0,0.714c1.177,0.651 2.362,1.063 4.047,1.365l-0.012,-0.968c-1.145,-0.069 -2.719,-0.396 -4.035,-1.111" style="fill:#878e91;fill-rule:nonzero;"/><path d="M21.36,14.14l-0.005,1.006c0.986,0.082 1.916,0.107 2.423,0.106l0,-1.132c-0.748,0.05 -2.134,0.06 -2.418,0.02" style="fill:#878e91;fill-rule:nonzero;"/><path d="M25.065,7.622l0,-0.687c-1.213,-0.246 -3.565,-0.429 -4.958,-0.298l0,0.533c1.839,-0.067 3.657,0.167 4.958,0.452" style="fill:#878e91;fill-rule:nonzero;"/><path d="M20.162,17.018l0,-1.078c-1.804,-0.159 -4.578,-0.789 -6.3,-2.054l0,0.719c1.888,1.425 4.876,2.215 6.3,2.413" style="fill:#878e91;fill-rule:nonzero;"/><path d="M13.207,14.066l0,-0.712c-1.528,-1.454 -1.23,-2.932 -0.243,-3.885l0,-0.445c-1.897,1.723 -1.202,3.808 0.243,5.042" style="fill:#878e91;fill-rule:nonzero;"/><path d="M20.796,15.998l0,1.116c1.098,0.155 2.051,0.204 2.982,0.204l0,-1.232c-1.005,0.006 -2.536,-0.046 -2.982,-0.088" style="fill:#878e91;fill-rule:nonzero;"/><path d="M13.476,8.604l0,0.42c1.644,-1.223 4.109,-1.716 5.842,-1.81l0,-0.513c-2.146,0.14 -4.611,0.963 -5.842,1.903" style="fill:#878e91;fill-rule:nonzero;"/><path d="M10.801,14.718l0,0.771c2.358,2.127 6.238,3.285 8.582,3.689l0,-1.201c-2.16,-0.242 -6.062,-1.08 -8.582,-3.259" style="fill:#878e91;fill-rule:nonzero;"/><path d="M26.06,6.611l0,-0.677c-1.524,-0.278 -4.157,-0.58 -6.624,-0.355l0,0.537c2.073,-0.144 4.999,0.125 6.624,0.495" style="fill:#878e91;fill-rule:nonzero;"/><path d="M20.077,18.055l0,1.244c1.045,0.209 2.765,0.306 3.701,0.34l0,-1.386c-0.558,0.02 -3.004,-0.121 -3.701,-0.198" style="fill:#878e91;fill-rule:nonzero;"/><path d="M18.645,6.166l0,-0.522c-1.833,0.158 -5.111,0.811 -7.286,2.283l0,0.422c2.117,-1.441 5.392,-2.081 7.286,-2.183" style="fill:#878e91;fill-rule:nonzero;"/><path d="M10.763,8.779l0,-0.43c-0.995,0.75 -3.435,3.28 -0.611,6.482l0,-0.777c-0.628,-0.701 -2.143,-2.974 0.611,-5.275" style="fill:#878e91;fill-rule:nonzero;"/><path d="M27.119,5.5l0,-0.695c-1.845,-0.362 -5.442,-0.676 -8.269,-0.398l0,0.537c2.5,-0.193 6.055,0.089 8.269,0.556" style="fill:#878e91;fill-rule:nonzero;"/><path d="M19.307,20.185l0,1.316c1.392,0.271 3.126,0.438 4.471,0.484l0,-1.493c-1.609,-0.027 -2.997,-0.103 -4.471,-0.307" style="fill:#878e91;fill-rule:nonzero;"/><path d="M18.547,21.376l0,-1.273c-3.87,-0.547 -8.134,-1.957 -10.776,-4.548l0,0.822c3.13,3.118 8.323,4.556 10.776,4.999" style="fill:#878e91;fill-rule:nonzero;"/><path d="M9.221,7.182l0,0.414c2.588,-1.647 6.132,-2.355 8.839,-2.595l0,-0.524c-2.603,0.226 -6.415,1.113 -8.839,2.705" style="fill:#878e91;fill-rule:nonzero;"/><path d="M7.118,15.581l0,-0.846c-1.013,-1.381 -2.007,-4.105 1.494,-6.713l0,-0.426c-3.931,2.811 -2.952,6.251 -1.494,7.985" style="fill:#878e91;fill-rule:nonzero;"/><path d="M4.404,16.112l0,0.918c2.969,3.852 9.101,6.119 12.914,6.923l0,-1.407c-4.006,-0.678 -10.093,-2.641 -12.914,-6.434" style="fill:#878e91;fill-rule:nonzero;"/><path d="M28.254,4.286l0,-0.722c-1.825,-0.381 -6.262,-0.873 -10.169,-0.466l0,0.555c3.267,-0.288 7.39,0.063 10.169,0.633" style="fill:#878e91;fill-rule:nonzero;"/><path d="M17.296,3.72l0,-0.542c-3.391,0.345 -7.601,1.518 -10.061,3.126l0,0.43c3.091,-1.895 7.192,-2.743 10.061,-3.014" style="fill:#878e91;fill-rule:nonzero;"/><path d="M18.146,22.68l0,1.442c0.87,0.222 4.175,0.695 5.632,0.707l0,-1.654c-2.224,-0.07 -4.495,-0.312 -5.632,-0.495" style="fill:#878e91;fill-rule:nonzero;"/><path d="M6.572,7.17l0,-0.436c-0.995,0.641 -5.707,4.179 -2.813,9.284l0,-1.029c-1.81,-3.764 0.95,-6.495 2.813,-7.819" style="fill:#878e91;fill-rule:nonzero;"/><rect x="47.609" y="12.622" width="0.217" height="11.931" style="fill:#8b949a;"/></g></g></svg>