<?xml version="1.0" standalone="no"?><!DOCTYPE svg PUBLIC "-//W3C//DTD SVG 1.1//EN" "http://www.w3.org/Graphics/SVG/1.1/DTD/svg11.dtd"><svg width="100%" height="100%" viewBox="0 0 182 128" version="1.1" xmlns="http://www.w3.org/2000/svg" xmlns:xlink="http://www.w3.org/1999/xlink" xml:space="preserve" style="fill-rule:evenodd;clip-rule:evenodd;stroke-linejoin:round;stroke-miterlimit:1.41421;"><path d="M6.399,115.174l-3.836,0l0,5.131l4.363,0l0,2.229l-6.926,0l0,-16.155l6.64,0l0,2.226l-4.077,0l0,4.437l3.836,0l0,2.132Z" style="fill:#7a868e;fill-rule:nonzero;"/><g><clipPath id="_clip1"><rect x="-3.129" y="-1.106" width="184.235" height="128.24"/></clipPath><g clip-path="url(#_clip1)"><path d="M17.324,119.13c0,1.267 0.049,2.419 0.095,3.404l-2.229,0l-0.143,-1.223l-0.048,0c-0.455,0.693 -1.391,1.413 -2.614,1.413c-2.131,0 -2.994,-1.605 -2.994,-4.649l0,-7.216l2.563,0l0,6.905c0,1.677 0.288,2.827 1.344,2.827c0.791,0 1.197,-0.672 1.316,-1.15c0.097,-0.263 0.146,-0.621 0.146,-1.005l0,-7.577l2.564,0l0,8.271Z" style="fill:#7a868e;fill-rule:nonzero;"/><path d="M20.646,114.146c0,-1.079 -0.048,-2.301 -0.096,-3.287l2.227,0l0.143,1.752l0.074,0c0.454,-1.172 1.414,-1.941 2.374,-1.941c0.24,0 0.381,0.021 0.55,0.045l0,2.545c-0.169,-0.025 -0.334,-0.025 -0.55,-0.025c-0.887,0 -1.775,0.741 -2.064,2.011c-0.047,0.266 -0.096,0.672 -0.096,1.104l0,6.184l-2.562,0l0,-8.388Z" style="fill:#7a868e;fill-rule:nonzero;"/><path d="M32.03,120.758c1.27,0 1.558,-2.3 1.558,-4.074c0,-1.699 -0.288,-4.05 -1.605,-4.05c-1.389,0 -1.654,2.351 -1.654,4.05c0,1.967 0.335,4.074 1.679,4.074l0.022,0ZM31.935,122.725c-2.469,0 -4.17,-2.062 -4.17,-5.991c0,-4.244 2.085,-6.065 4.265,-6.065c2.445,0 4.123,2.133 4.123,5.99c0,4.722 -2.445,6.066 -4.194,6.066l-0.024,0Z" style="fill:#7a868e;fill-rule:nonzero;"/><path d="M41.522,118.267c0,0.359 0.048,0.719 0.12,0.982c0.312,1.126 0.912,1.366 1.344,1.366c1.292,0 1.724,-1.845 1.724,-3.906c0,-2.323 -0.551,-3.882 -1.724,-3.882c-0.649,0 -1.223,0.721 -1.368,1.512c-0.072,0.259 -0.096,0.548 -0.096,0.859l0,3.069ZM38.982,114.528c0,-1.584 -0.047,-2.684 -0.097,-3.669l2.229,0l0.144,1.417l0.048,0c0.553,-1.105 1.438,-1.606 2.446,-1.606c2.324,0 3.522,2.492 3.522,5.988c0,4.269 -1.82,6.067 -3.714,6.067c-1.032,0 -1.654,-0.621 -1.99,-1.222l-0.048,0l0,5.631l-2.54,0l0,-12.606Z" style="fill:#7a868e;fill-rule:nonzero;"/><path d="M55.377,115.557c0.023,-1.866 -0.599,-2.971 -1.51,-2.971c-1.101,0 -1.605,1.609 -1.654,2.971l3.164,0ZM52.213,117.381c0.024,2.612 1.224,3.329 2.59,3.329c0.861,0 1.581,-0.19 2.085,-0.404l0.384,1.821c-0.744,0.335 -1.872,0.548 -2.926,0.548c-3.02,0 -4.625,-2.18 -4.625,-5.798c0,-3.858 1.845,-6.207 4.338,-6.207c2.445,0 3.691,2.23 3.691,5.341c0,0.673 -0.025,1.059 -0.073,1.37l-5.464,0Z" style="fill:#7a868e;fill-rule:nonzero;"/><path d="M65.127,116.684c-1.006,0.025 -2.805,0.291 -2.805,2.326c0,1.319 0.695,1.798 1.271,1.798c0.648,0 1.246,-0.433 1.462,-1.342c0.049,-0.169 0.072,-0.387 0.072,-0.598l0,-2.184ZM67.643,119.873c0,0.91 0.024,1.894 0.144,2.661l-2.3,0l-0.143,-1.178l-0.05,0c-0.598,0.891 -1.461,1.369 -2.467,1.369c-1.679,0 -2.948,-1.391 -2.948,-3.452c0,-2.995 2.539,-4.265 5.176,-4.289l0,-0.31c0,-1.224 -0.479,-2.063 -1.751,-2.063c-0.836,0 -1.533,0.24 -2.18,0.649l-0.478,-1.753c0.574,-0.358 1.796,-0.837 3.211,-0.837c3.018,0 3.786,2.062 3.786,4.551l0,4.652Z" style="fill:#7a868e;fill-rule:nonzero;"/><path d="M70.912,114.146c0,-1.319 -0.05,-2.252 -0.097,-3.287l2.229,0l0.118,1.37l0.049,0c0.55,-0.938 1.534,-1.559 2.755,-1.559c1.965,0 2.997,1.509 2.997,4.217l0,7.647l-2.565,0l0,-7.405c0,-1.177 -0.24,-2.302 -1.366,-2.302c-0.623,0 -1.199,0.479 -1.438,1.437c-0.072,0.242 -0.121,0.623 -0.121,1.056l0,7.214l-2.561,0l0,-8.388Z" style="fill:#7a868e;fill-rule:nonzero;"/><path d="M89.327,114.121c0.192,0.05 0.359,0.05 0.623,0.05c1.681,0 2.614,-1.152 2.614,-3.001c0,-1.505 -0.623,-2.778 -2.353,-2.778c-0.357,0 -0.669,0.045 -0.884,0.12l0,5.609ZM86.787,106.619c0.815,-0.191 1.869,-0.312 2.995,-0.312c1.704,0 3.096,0.312 4.052,1.224c0.861,0.814 1.294,2.061 1.294,3.45c0,1.629 -0.453,2.734 -1.2,3.594c-0.959,1.126 -2.515,1.68 -3.882,1.68c-0.264,0 -0.482,0 -0.719,-0.027l0,6.306l-2.54,0l0,-15.915Z" style="fill:#7a868e;fill-rule:nonzero;"/><path d="M102.208,116.684c-1.01,0.025 -2.807,0.291 -2.807,2.326c0,1.319 0.697,1.798 1.271,1.798c0.647,0 1.248,-0.433 1.463,-1.342c0.049,-0.169 0.073,-0.387 0.073,-0.598l0,-2.184ZM104.723,119.873c0,0.91 0.023,1.894 0.144,2.661l-2.3,0l-0.141,-1.178l-0.05,0c-0.597,0.891 -1.463,1.369 -2.471,1.369c-1.678,0 -2.946,-1.391 -2.946,-3.452c0,-2.995 2.543,-4.265 5.176,-4.289l0,-0.31c0,-1.224 -0.479,-2.063 -1.75,-2.063c-0.838,0 -1.531,0.24 -2.179,0.649l-0.48,-1.753c0.574,-0.358 1.797,-0.837 3.211,-0.837c3.02,0 3.786,2.062 3.786,4.551l0,4.652Z" style="fill:#7a868e;fill-rule:nonzero;"/><path d="M107.992,114.146c0,-1.079 -0.05,-2.301 -0.098,-3.287l2.231,0l0.144,1.752l0.07,0c0.455,-1.172 1.415,-1.941 2.379,-1.941c0.235,0 0.379,0.021 0.546,0.045l0,2.545c-0.167,-0.025 -0.332,-0.025 -0.546,-0.025c-0.893,0 -1.778,0.741 -2.067,2.011c-0.047,0.266 -0.098,0.672 -0.098,1.104l0,6.184l-2.561,0l0,-8.388Z" style="fill:#7a868e;fill-rule:nonzero;"/><rect x="115.556" y="105.95" width="2.566" height="16.583" style="fill:#7a868e;fill-rule:nonzero;"/><path d="M121.45,110.859l2.566,0l0,11.675l-2.566,0l0,-11.675ZM122.675,109.304c-0.744,0 -1.344,-0.6 -1.344,-1.488c0,-0.91 0.622,-1.487 1.367,-1.487c0.817,0 1.39,0.577 1.39,1.487c0,0.888 -0.573,1.488 -1.39,1.488l-0.023,0Z" style="fill:#7a868e;fill-rule:nonzero;"/><path d="M131.856,116.684c-1.005,0.025 -2.802,0.291 -2.802,2.326c0,1.319 0.694,1.798 1.268,1.798c0.647,0 1.246,-0.433 1.462,-1.342c0.05,-0.169 0.072,-0.387 0.072,-0.598l0,-2.184ZM134.374,119.873c0,0.91 0.025,1.894 0.144,2.661l-2.304,0l-0.144,-1.178l-0.045,0c-0.601,0.891 -1.462,1.369 -2.468,1.369c-1.679,0 -2.951,-1.391 -2.951,-3.452c0,-2.995 2.541,-4.265 5.178,-4.289l0,-0.31c0,-1.224 -0.48,-2.063 -1.749,-2.063c-0.838,0 -1.534,0.24 -2.182,0.649l-0.479,-1.753c0.577,-0.358 1.799,-0.837 3.21,-0.837c3.024,0 3.79,2.062 3.79,4.551l0,4.652Z" style="fill:#7a868e;fill-rule:nonzero;"/><path d="M137.635,114.146c0,-1.319 -0.05,-2.252 -0.094,-3.287l2.226,0l0.12,1.394l0.049,0c0.548,-0.887 1.508,-1.583 2.732,-1.583c1.197,0 2.063,0.576 2.491,1.677l0.049,0c0.287,-0.502 0.718,-0.957 1.15,-1.246c0.48,-0.287 1.032,-0.431 1.631,-0.431c1.868,0 2.923,1.439 2.923,4.315l0,7.549l-2.541,0l0,-7.07c0,-1.416 -0.191,-2.662 -1.317,-2.662c-0.671,0 -1.198,0.504 -1.413,1.369c-0.073,0.235 -0.099,0.571 -0.099,0.933l0,7.43l-2.537,0l0,-7.48c0,-1.027 -0.145,-2.252 -1.294,-2.252c-0.627,0 -1.227,0.479 -1.438,1.415c-0.05,0.263 -0.099,0.6 -0.099,0.935l0,7.382l-2.539,0l0,-8.388Z" style="fill:#7a868e;fill-rule:nonzero;"/><path d="M159.406,115.557c0.025,-1.866 -0.599,-2.971 -1.508,-2.971c-1.105,0 -1.606,1.609 -1.653,2.971l3.161,0ZM156.245,117.381c0.022,2.612 1.221,3.329 2.588,3.329c0.859,0 1.58,-0.19 2.084,-0.404l0.382,1.821c-0.745,0.335 -1.868,0.548 -2.922,0.548c-3.023,0 -4.628,-2.18 -4.628,-5.798c0,-3.858 1.847,-6.207 4.338,-6.207c2.443,0 3.691,2.23 3.691,5.341c0,0.673 -0.025,1.059 -0.072,1.37l-5.461,0Z" style="fill:#7a868e;fill-rule:nonzero;"/><path d="M164.547,114.146c0,-1.319 -0.05,-2.252 -0.095,-3.287l2.231,0l0.117,1.37l0.05,0c0.548,-0.938 1.531,-1.559 2.756,-1.559c1.963,0 2.993,1.509 2.993,4.217l0,7.647l-2.563,0l0,-7.405c0,-1.177 -0.239,-2.302 -1.366,-2.302c-0.625,0 -1.197,0.479 -1.439,1.437c-0.07,0.242 -0.118,0.623 -0.118,1.056l0,7.214l-2.566,0l0,-8.388Z" style="fill:#7a868e;fill-rule:nonzero;"/><path d="M178.855,107.96l0,2.899l2.251,0l0,1.849l-2.251,0l0,6.062c0,1.437 0.553,1.797 1.2,1.797c0.286,0 0.525,-0.025 0.79,-0.072l0.047,1.989c-0.383,0.121 -0.958,0.191 -1.677,0.191c-0.813,0 -1.555,-0.212 -2.061,-0.716c-0.577,-0.578 -0.864,-1.417 -0.864,-3.165l0,-6.086l-1.389,0l0,-1.849l1.389,0l0,-2.01l2.565,-0.889Z" style="fill:#7a868e;fill-rule:nonzero;"/><rect x="100.75" y="42.249" width="80.348" height="53.605" style="fill:#034ea2;fill-rule:nonzero;"/><path d="M140.883,48.073l0.766,2.379l2.494,-0.012l-2.027,1.46l0.784,2.373l-2.017,-1.478l-2.009,1.478l0.781,-2.373l-2.028,-1.46l2.493,0.012l0.763,-2.379Z" style="fill:#fff200;fill-rule:nonzero;"/><path d="M140.883,83.833l0.766,2.37l2.494,-0.009l-2.027,1.463l0.784,2.374l-2.017,-1.475l-2.009,1.475l0.781,-2.374l-2.028,-1.463l2.493,0.009l0.763,-2.37Z" style="fill:#fff200;fill-rule:nonzero;"/><path d="M131.99,50.452l0.763,2.376l2.495,-0.006l-2.021,1.454l0.78,2.371l-2.017,-1.475l-2.009,1.475l0.778,-2.371l-2.018,-1.454l2.493,0.006l0.756,-2.376Z" style="fill:#fff200;fill-rule:nonzero;"/><path d="M125.446,57.016l0.76,2.377l2.497,-0.016l-2.029,1.462l0.779,2.369l-2.007,-1.476l-2.012,1.476l0.782,-2.369l-2.034,-1.462l2.504,0.016l0.76,-2.377Z" style="fill:#fff200;fill-rule:nonzero;"/><path d="M123.031,65.936l0.756,2.37l2.501,-0.012l-2.026,1.464l0.772,2.368l-2.003,-1.478l-2.013,1.478l0.785,-2.368l-2.032,-1.464l2.497,0.012l0.763,-2.37Z" style="fill:#fff200;fill-rule:nonzero;"/><path d="M125.418,74.85l0.765,2.386l2.487,-0.019l-2.022,1.461l0.786,2.371l-2.016,-1.483l-2.013,1.483l0.785,-2.371l-2.03,-1.458l2.495,0.016l0.763,-2.386Z" style="fill:#fff200;fill-rule:nonzero;"/><path d="M131.99,81.411l0.763,2.376l2.495,-0.011l-2.021,1.457l0.78,2.373l-2.017,-1.474l-2.009,1.474l0.778,-2.373l-2.018,-1.457l2.493,0.011l0.756,-2.376Z" style="fill:#fff200;fill-rule:nonzero;"/><path d="M149.789,50.452l-0.762,2.376l-2.501,-0.006l2.029,1.454l-0.781,2.371l2.015,-1.475l2.009,1.475l-0.778,-2.371l2.023,-1.454l-2.487,0.006l-0.767,-2.376Z" style="fill:#fff200;fill-rule:nonzero;"/><path d="M156.337,57.016l-0.762,2.377l-2.499,-0.016l2.027,1.462l-0.783,2.369l2.017,-1.476l2.016,1.476l-0.785,-2.369l2.022,-1.462l-2.493,0.016l-0.76,-2.377Z" style="fill:#fff200;fill-rule:nonzero;"/><path d="M158.752,65.936l-0.762,2.37l-2.501,-0.012l2.029,1.464l-0.782,2.368l2.016,-1.478l2.013,1.478l-0.78,-2.368l2.019,-1.464l-2.493,0.012l-0.759,-2.37Z" style="fill:#fff200;fill-rule:nonzero;"/><path d="M156.353,74.85l-0.752,2.386l-2.499,-0.019l2.03,1.461l-0.786,2.371l2.007,-1.483l2.023,1.483l-0.783,-2.371l2.027,-1.458l-2.498,0.016l-0.769,-2.386Z" style="fill:#fff200;fill-rule:nonzero;"/><path d="M149.789,81.411l-0.762,2.376l-2.501,-0.011l2.029,1.457l-0.781,2.373l2.015,-1.474l2.009,1.474l-0.778,-2.373l2.023,-1.457l-2.487,0.011l-0.767,-2.376Z" style="fill:#fff200;fill-rule:nonzero;"/><path d="M113.543,31.565l0,-4.432c-1.614,-1.381 -8.057,-4.147 -11.985,-5.015l0,3.121c4.493,1.104 10.089,4.352 11.985,6.326" style="fill:#7a868e;fill-rule:nonzero;"/><path d="M116.809,38.179l3.818,0c0.116,-5.592 -4.424,-9.054 -5.075,-9.555l0,5.328c1.46,2.363 1.257,4.227 1.257,4.227" style="fill:#7a868e;fill-rule:nonzero;"/><path d="M126.309,26.923l0,4.811c1.918,2.008 3.07,3.58 3.982,6.468l4.041,0c-1.079,-4.415 -3.648,-8.026 -8.023,-11.279" style="fill:#7a868e;fill-rule:nonzero;"/><path d="M123.848,29.561l0,-4.334c-3.709,-2.399 -11.038,-5.685 -18.362,-7.212l0,3.109c7.036,1.704 14.515,5.35 18.362,8.437" style="fill:#7a868e;fill-rule:nonzero;"/><path d="M134.236,26.93l0,-4.288c-4.448,-2.805 -13.607,-6.727 -24.419,-9.009l0,3.103c10.38,2.508 18.258,6.085 24.419,10.194" style="fill:#7a868e;fill-rule:nonzero;"/><path d="M137.112,24.466c-0.006,-0.003 -0.011,4.611 -0.011,4.611c2.84,2.253 5.583,5.22 7.413,9.126l4.29,0c-1.467,-4.86 -6.959,-10.75 -11.692,-13.737" style="fill:#7a868e;fill-rule:nonzero;"/><path d="M145.825,24.261l0,-4.291c-8.508,-5.033 -21.264,-9.457 -31.39,-11.242l0,3.093c11.44,2.296 25.066,7.949 31.39,12.44" style="fill:#7a868e;fill-rule:nonzero;"/><path d="M159.584,38.202l4.495,0c-3.233,-7.738 -11.326,-13.941 -15.107,-16.303l0,4.552c5.725,4.242 7.841,7.274 10.612,11.751" style="fill:#7a868e;fill-rule:nonzero;"/><path d="M157.229,21.55l0,-4.443c-6.892,-4.218 -20.836,-10.53 -37.815,-13.8l0,3.228c12.917,2.684 29.39,9.093 37.815,15.015" style="fill:#7a868e;fill-rule:nonzero;"/><path d="M174.168,38.202l4.917,0c-5.451,-9.273 -11.688,-14.575 -18.424,-18.958l0,4.657c4.994,3.506 10.347,8.735 13.507,14.301" style="fill:#7a868e;fill-rule:nonzero;"/><path d="M98.339,24.368l0,-2.931c-4.423,-0.83 -12.196,-1.361 -15.611,-0.916l0,2.296c5.129,-0.267 12.682,0.686 15.611,1.551" style="fill:#7a868e;fill-rule:nonzero;"/><path d="M79.288,23.027l0,-2.193c-8.206,0.857 -13.835,3.678 -17.091,6.083l0,1.886c4.649,-3.753 11.09,-5.307 17.091,-5.776" style="fill:#7a868e;fill-rule:nonzero;"/><path d="M60.3,30.771l0,-2.134c-7.549,8.481 1.896,15.544 2.901,16.249l0,-2.901c-5.28,-3.99 -4.659,-8.853 -2.901,-11.214" style="fill:#7a868e;fill-rule:nonzero;"/><path d="M66.059,43.782l0,3.11c5.126,2.838 10.286,4.632 17.624,5.946l-0.053,-4.215c-4.987,-0.303 -11.841,-1.725 -17.571,-4.841" style="fill:#7a868e;fill-rule:nonzero;"/><path d="M86.133,48.755l-0.022,4.385c4.292,0.357 8.342,0.465 10.554,0.462l0,-4.933c-3.258,0.22 -9.298,0.261 -10.532,0.086" style="fill:#7a868e;fill-rule:nonzero;"/><path d="M102.267,20.367l0,-2.989c-5.282,-1.07 -15.525,-1.868 -21.593,-1.302l0,2.326c8.008,-0.295 15.929,0.728 21.593,1.965" style="fill:#7a868e;fill-rule:nonzero;"/><path d="M80.915,61.291l0,-4.694c-7.858,-0.694 -19.939,-3.437 -27.441,-8.945l0,3.13c8.226,6.205 21.239,9.645 27.441,10.509" style="fill:#7a868e;fill-rule:nonzero;"/><path d="M50.625,48.432l0,-3.1c-6.656,-6.33 -5.356,-12.769 -1.058,-16.918l0,-1.939c-8.262,7.503 -5.236,16.583 1.058,21.957" style="fill:#7a868e;fill-rule:nonzero;"/><path d="M83.675,56.849l0,4.861c4.783,0.672 8.929,0.888 12.989,0.888l0,-5.364c-4.375,0.025 -11.046,-0.203 -12.989,-0.385" style="fill:#7a868e;fill-rule:nonzero;"/><path d="M51.793,24.648l0,1.827c7.161,-5.327 17.897,-7.474 25.443,-7.883l0,-2.232c-9.346,0.61 -20.082,4.192 -25.443,8.288" style="fill:#7a868e;fill-rule:nonzero;"/><path d="M40.144,51.275l0,3.36c10.271,9.261 27.168,14.304 37.376,16.065l0,-5.235c-9.406,-1.055 -26.402,-4.7 -37.376,-14.19" style="fill:#7a868e;fill-rule:nonzero;"/><path d="M106.598,15.967l0,-2.951c-6.634,-1.208 -18.105,-2.526 -28.845,-1.543l0,2.337c9.027,-0.629 21.768,0.546 28.845,2.157" style="fill:#7a868e;fill-rule:nonzero;"/><path d="M80.542,65.806l0,5.416c4.553,0.911 12.043,1.335 16.123,1.484l0,-6.036c-2.434,0.085 -13.087,-0.527 -16.123,-0.864" style="fill:#7a868e;fill-rule:nonzero;"/><path d="M74.308,14.028l0,-2.271c-7.985,0.687 -22.26,3.531 -31.732,9.94l0,1.84c9.217,-6.277 23.483,-9.062 31.732,-9.509" style="fill:#7a868e;fill-rule:nonzero;"/><path d="M39.977,25.408l0,-1.871c-4.332,3.268 -14.957,14.285 -2.658,28.23l0,-3.383c-2.733,-3.055 -9.333,-12.955 2.658,-22.976" style="fill:#7a868e;fill-rule:nonzero;"/><path d="M111.215,11.129l0,-3.03c-8.04,-1.577 -23.702,-2.941 -36.015,-1.734l0,2.341c10.885,-0.841 26.372,0.386 36.015,2.423" style="fill:#7a868e;fill-rule:nonzero;"/><path d="M77.192,75.084l0,5.729c6.063,1.179 13.613,1.91 19.473,2.109l0,-6.501c-7.011,-0.119 -13.056,-0.452 -19.473,-1.337" style="fill:#7a868e;fill-rule:nonzero;"/><path d="M73.881,80.271l0,-5.544c-16.854,-2.383 -35.425,-8.523 -46.932,-19.804l0,3.575c13.633,13.58 36.249,19.841 46.932,21.773" style="fill:#7a868e;fill-rule:nonzero;"/><path d="M33.265,18.452l0,1.803c11.267,-7.171 26.704,-10.254 38.494,-11.299l0,-2.282c-11.335,0.983 -27.937,4.844 -38.494,11.778" style="fill:#7a868e;fill-rule:nonzero;"/><path d="M24.105,55.033l0,-3.684c-4.411,-6.015 -8.741,-17.879 6.504,-29.239l0,-1.855c-17.121,12.242 -12.854,27.224 -6.504,34.778" style="fill:#7a868e;fill-rule:nonzero;"/><path d="M12.283,57.347l0,3.994c12.933,16.777 39.637,26.653 56.243,30.151l0,-6.126c-17.447,-2.953 -43.954,-11.499 -56.243,-28.019" style="fill:#7a868e;fill-rule:nonzero;"/><path d="M116.159,5.842l0,-3.144c-7.95,-1.661 -27.275,-3.804 -44.291,-2.033l0,2.417c14.228,-1.252 32.187,0.276 44.291,2.76" style="fill:#7a868e;fill-rule:nonzero;"/><path d="M68.43,3.375l0,-2.362c-14.767,1.507 -33.102,6.614 -43.815,13.615l0,1.873c13.459,-8.254 31.321,-11.944 43.815,-13.126" style="fill:#7a868e;fill-rule:nonzero;"/><path d="M72.132,85.951l0,6.28c3.793,0.966 18.186,3.025 24.532,3.075l0,-7.2c-9.687,-0.306 -19.58,-1.359 -24.532,-2.155" style="fill:#7a868e;fill-rule:nonzero;"/><path d="M21.727,18.402l0,-1.901c-4.334,2.795 -24.855,18.203 -12.249,40.436l0,-4.483c-7.885,-16.391 4.134,-28.286 12.249,-34.052" style="fill:#7a868e;fill-rule:nonzero;"/></g></g></svg>